<svg xmlns="http://www.w3.org/2000/svg" width="1254" height="836" viewBox="0 0 1254 836">
<g>
<path d="M 628.72 217.68 C638.19,217.36 648.85,217.54 655.94,218.27 C665.13,219.23 664.76,218.33 655.40,216.92 C635.34,213.91 606.32,213.13 590.50,215.18 C580.14,216.53 569.73,216.51 567.28,215.14 C565.87,214.35 566.19,213.95 569.30,212.65 C573.94,210.71 574.06,209.00 569.57,209.00 C565.01,209.00 561.70,207.66 557.07,203.94 C553.29,200.90 547.00,192.26 547.00,190.11 C547.00,189.50 546.62,189.00 546.16,189.00 C545.02,189.00 543.00,184.39 543.00,181.78 C543.00,180.61 543.74,178.83 544.65,177.83 C545.57,176.82 545.81,176.00 545.20,176.00 C544.59,176.00 545.20,174.80 546.56,173.34 C547.91,171.88 548.83,170.50 548.60,170.27 C548.59,170.25 548.56,170.24 548.54,170.23 C548.85,170.15 549.14,170.08 549.40,170.03 C551.66,169.55 556.88,167.97 561.00,166.51 C565.12,165.04 575.47,162.48 584.00,160.81 C598.08,158.06 601.66,157.76 623.00,157.47 C653.30,157.07 663.21,157.95 687.50,163.20 C695.15,164.85 714.93,171.62 723.47,175.52 C727.67,177.43 731.65,179.00 732.31,179.00 C732.97,179.00 736.39,174.16 739.90,168.25 C747.13,156.08 749.59,153.00 752.09,153.00 C755.49,153.00 757.12,154.30 759.43,158.87 C763.93,167.80 779.48,207.18 791.63,239.40 L 788.85 239.81 C787.19,240.05 785.60,240.87 785.31,241.63 C784.64,243.38 782.57,243.39 781.12,241.64 C780.18,240.52 778.87,240.66 773.25,242.49 C766.88,244.56 766.16,244.60 760.50,243.22 C757.20,242.42 753.60,241.85 752.50,241.96 C747.87,242.44 738.72,241.45 736.33,240.20 C735.32,239.68 731.80,238.93 728.50,238.53 C725.20,238.13 721.91,237.33 721.20,236.74 C720.48,236.15 717.11,235.58 713.70,235.47 C710.29,235.36 707.39,235.16 707.25,235.01 C706.87,234.61 705.21,234.26 703.00,234.12 C701.90,234.06 701.00,233.52 701.00,232.93 C701.00,231.64 699.42,230.06 695.79,227.74 C691.52,225.01 691.10,225.71 695.29,228.55 C695.51,228.70 695.72,228.85 695.92,229.00 C691.20,225.86 676.40,221.30 664.50,219.39 C655.35,217.91 640.97,217.32 628.72,217.68 ZM 665.00 344.92 L 664.85 328.21 C664.77,319.02 664.51,312.74 664.28,314.25 C663.91,316.71 663.70,316.84 662.36,315.50 C661.43,314.57 658.99,314.00 655.95,314.00 C651.52,314.00 650.90,313.71 649.50,311.00 C647.85,307.81 643.00,305.26 637.04,304.45 C633.02,303.90 629.62,303.25 629.25,302.95 C629.11,302.84 628.66,302.68 628.25,302.59 C627.84,302.50 626.60,301.94 625.50,301.35 C624.40,300.75 621.14,299.71 618.25,299.03 C615.36,298.35 613.00,297.45 613.00,297.02 C613.00,296.59 610.97,295.73 608.50,295.10 C606.03,294.48 604.00,293.53 604.00,292.99 C604.00,292.44 603.40,292.00 602.67,292.00 C601.94,292.00 600.70,290.76 599.92,289.25 C599.14,287.74 597.91,285.88 597.19,285.12 C596.47,284.36 596.19,283.01 596.56,282.12 C596.93,281.23 597.25,279.83 597.26,279.00 C597.26,278.17 597.77,276.83 598.39,276.00 C599.38,274.67 599.29,274.67 597.59,276.00 C597.56,276.02 597.54,276.04 597.51,276.06 C600.97,272.80 607.02,272.45 625.96,272.18 C650.58,271.83 655.16,272.47 659.36,276.86 C664.70,282.43 665.00,284.53 665.00,315.93 L 665.00 344.92 ZM 795.99 251.05 C801.74,266.55 806.09,278.86 807.00,282.70 C807.13,283.24 807.20,283.78 807.20,284.32 C806.74,281.41 804.62,275.44 799.31,260.43 L 795.99 251.05 ZM 750.90 272.19 C735.90,268.19 720.23,265.09 702.50,262.53 C723.08,265.50 735.43,267.93 749.00,271.66 C749.62,271.83 750.25,272.01 750.90,272.19 ZM 533.66 175.80 C523.27,180.35 510.67,186.42 507.00,189.01 C511.24,186.02 523.23,180.23 533.66,175.80 ZM 593.20 283.44 C592.23,286.99 592.07,293.17 592.03,314.51 C592.02,323.03 591.91,330.81 591.74,336.27 C591.91,330.78 592.02,322.93 592.03,314.34 C592.07,292.27 592.13,286.82 593.20,283.44 ZM 806.42 287.81 C805.75,289.12 804.68,290.00 803.46,290.00 C803.25,290.00 802.72,289.87 801.93,289.62 C804.32,290.11 805.25,289.49 806.33,287.94 C806.36,287.89 806.39,287.85 806.42,287.81 ZM 688.60 243.75 C689.20,243.04 689.86,242.27 690.57,241.45 L 693.76 237.76 C692.58,239.13 691.27,240.66 689.90,242.24 C689.44,242.77 689.01,243.27 688.60,243.75 Z" fill="rgba(16,224,254,1)"/>
<path d="M 580.86 226.60 C588.85,223.92 590.56,223.05 587.99,223.03 C586.06,223.01 582.94,223.44 581.06,223.98 C576.65,225.25 576.10,224.59 578.98,221.52 C581.13,219.24 581.17,219.00 579.51,218.36 C576.84,217.34 561.13,220.73 547.50,225.26 C522.82,233.46 514.11,237.57 490.50,252.15 C481.70,257.59 475.91,260.79 477.63,259.27 C480.73,256.53 482.73,252.00 480.84,252.00 C478.50,252.00 484.68,245.69 491.48,241.14 C501.99,234.11 506.05,230.89 505.51,230.02 C505.25,229.60 503.73,229.00 502.13,228.68 C500.23,228.30 498.46,226.86 497.02,224.53 C495.81,222.58 493.98,220.52 492.94,219.97 C491.10,218.98 489.71,215.04 488.68,207.83 C488.22,204.63 488.62,203.68 491.83,200.30 C493.85,198.17 496.62,195.63 498.00,194.66 C499.38,193.68 498.70,193.88 496.50,195.10 C496.26,195.23 496.03,195.36 495.79,195.50 C496.71,194.96 497.62,194.45 498.50,193.98 C501.80,192.21 505.62,189.97 507.00,189.01 C513.46,184.46 547.47,169.14 548.60,170.27 C548.83,170.50 547.91,171.88 546.56,173.34 C545.20,174.80 544.59,176.00 545.20,176.00 C545.81,176.00 545.57,176.82 544.65,177.83 C543.74,178.83 543.00,180.61 543.00,181.78 C543.00,184.39 545.02,189.00 546.16,189.00 C546.62,189.00 547.00,189.50 547.00,190.11 C547.00,192.26 553.29,200.90 557.07,203.94 C561.70,207.66 565.01,209.00 569.57,209.00 C574.06,209.00 573.94,210.71 569.30,212.65 C566.19,213.95 565.87,214.35 567.28,215.14 C569.73,216.51 580.14,216.53 590.50,215.18 C606.32,213.13 635.34,213.91 655.40,216.92 C664.76,218.33 665.13,219.23 655.94,218.27 C644.41,217.07 623.44,217.36 613.50,218.85 C602.21,220.55 591.30,223.16 580.86,226.60 ZM 732.94 348.77 C732.88,348.72 732.81,348.67 732.74,348.62 C728.90,345.68 727.52,345.31 728.33,347.43 C729.59,350.71 726.51,351.02 692.13,351.15 C667.92,351.24 657.97,351.60 657.88,352.39 C657.82,353.00 657.84,354.24 657.93,355.14 C658.18,357.70 651.35,358.14 646.79,355.86 C644.75,354.84 642.14,354.00 641.00,354.00 C639.85,354.00 636.02,353.06 632.48,351.92 C628.95,350.78 625.70,349.82 625.28,349.78 C624.85,349.75 622.07,348.88 619.09,347.86 C616.12,346.84 612.92,346.00 611.98,346.00 C611.04,346.00 609.07,345.06 607.61,343.91 C606.15,342.76 604.40,341.73 603.73,341.63 C601.30,341.26 600.14,339.92 599.49,336.74 C597.95,329.16 596.85,325.98 595.95,326.53 C595.43,326.85 594.99,326.08 594.98,324.81 C594.97,322.95 594.78,322.79 594.00,324.00 C593.34,325.02 592.96,321.51 592.79,313.00 C592.62,303.58 592.43,305.92 592.03,322.50 L 591.96 325.59 C592.00,322.15 592.03,318.41 592.03,314.51 C592.08,288.94 592.29,285.13 593.88,281.55 C594.87,279.32 596.54,276.83 597.59,276.00 C599.29,274.67 599.38,274.67 598.39,276.00 C597.77,276.83 597.26,278.17 597.26,279.00 C597.25,279.83 596.93,281.23 596.56,282.12 C596.19,283.01 596.47,284.36 597.19,285.12 C597.91,285.88 599.14,287.74 599.92,289.25 C600.70,290.76 601.94,292.00 602.67,292.00 C603.40,292.00 604.00,292.44 604.00,292.99 C604.00,293.53 606.03,294.48 608.50,295.10 C610.97,295.73 613.00,296.59 613.00,297.02 C613.00,297.45 615.36,298.35 618.25,299.03 C621.14,299.71 624.40,300.75 625.50,301.35 C626.60,301.94 627.84,302.50 628.25,302.59 C628.66,302.68 629.11,302.84 629.25,302.95 C629.62,303.25 633.02,303.90 637.04,304.45 C643.00,305.26 647.85,307.81 649.50,311.00 C650.90,313.71 651.52,314.00 655.95,314.00 C658.99,314.00 661.43,314.57 662.36,315.50 C663.70,316.84 663.91,316.71 664.28,314.25 C664.51,312.74 664.77,319.02 664.85,328.21 L 665.00 344.92 L 696.83 345.21 L 728.66 345.50 L 732.41 348.37 C732.59,348.50 732.77,348.64 732.94,348.77 ZM 793.00 286.40 C782.96,282.24 762.35,275.34 749.00,271.66 C735.43,267.93 723.08,265.50 702.50,262.53 C685.05,260.01 682.38,259.16 681.96,256.00 C681.49,252.46 682.41,250.87 689.90,242.24 C694.24,237.23 698.08,232.68 698.42,232.12 C698.77,231.56 697.36,229.96 695.29,228.55 C691.10,225.71 691.52,225.01 695.79,227.74 C699.42,230.06 701.00,231.64 701.00,232.93 C701.00,233.52 701.90,234.06 703.00,234.12 C705.21,234.26 706.87,234.61 707.25,235.01 C707.39,235.16 710.29,235.36 713.70,235.47 C717.11,235.58 720.48,236.15 721.20,236.74 C721.91,237.33 725.20,238.13 728.50,238.53 C731.80,238.93 735.32,239.68 736.33,240.20 C738.72,241.45 747.87,242.44 752.50,241.96 C753.60,241.85 757.20,242.42 760.50,243.22 C766.16,244.60 766.88,244.56 773.25,242.49 C778.87,240.66 780.18,240.52 781.12,241.64 C782.57,243.39 784.64,243.38 785.31,241.63 C785.60,240.87 787.19,240.05 788.85,239.81 L 791.85 239.37 L 799.31 260.43 C806.89,281.88 807.97,284.86 807.01,286.87 C806.84,287.22 806.61,287.54 806.33,287.94 C804.40,290.69 802.98,290.52 793.00,286.40 ZM 507.16 272.36 C526.04,252.53 550.72,236.75 579.27,227.13 C550.89,236.74 526.14,252.47 507.16,272.36 ZM 473.87 210.91 C459.69,222.32 445.04,236.43 437.07,247.00 C445.23,236.18 459.65,222.29 473.87,210.91 ZM 591.61 339.94 L 591.50 344.50 L 586.73 344.57 C589.47,344.44 591.10,344.30 591.23,344.17 C591.37,344.03 591.50,342.50 591.61,339.94 Z" fill="rgba(47,195,254,1)"/>
<path d="M 456.14 464.73 C459.20,465.49 461.38,466.00 461.58,466.00 C461.87,466.00 461.00,464.54 459.66,462.75 C449.52,449.24 443.08,420.56 444.44,395.00 C445.13,382.14 446.64,371.40 446.90,377.50 C446.99,379.55 447.30,380.08 447.88,379.17 C448.57,378.07 448.82,378.08 449.26,379.24 C449.63,380.19 451.70,380.72 455.65,380.87 C459.49,381.01 461.89,381.60 462.65,382.59 C463.55,383.78 463.91,383.83 464.32,382.80 C464.61,382.09 464.97,383.08 465.12,385.00 C465.27,386.92 465.70,381.75 466.07,373.50 C467.43,343.29 473.10,322.14 485.59,300.98 C476.77,316.18 470.85,332.72 468.39,350.00 C466.58,362.74 466.65,386.41 468.54,399.97 C472.42,427.77 484.50,454.42 501.61,472.90 C502.59,473.95 503.49,474.96 504.30,475.89 C503.09,474.61 501.66,473.15 500.14,471.64 L 492.27 463.82 L 488.47 467.16 C486.38,469.00 484.52,470.39 484.33,470.25 C483.27,469.46 481.00,470.20 481.00,471.35 C481.00,472.87 485.12,474.88 493.21,477.32 C491.17,476.74 489.19,476.14 487.50,475.57 C485.30,474.84 478.33,472.55 472.00,470.48 C465.67,468.41 460.05,466.38 459.50,465.98 C459.08,465.67 457.84,465.22 456.14,464.73 ZM 398.61 368.75 C397.17,374.11 395.58,380.30 395.09,382.50 C394.60,384.70 394.16,385.74 394.10,384.82 C393.94,382.05 396.71,370.06 399.49,361.50 C404.84,345.07 420.15,317.44 431.03,304.59 C440.51,293.39 448.71,284.70 454.16,280.07 C458.88,276.05 457.74,277.48 449.69,285.67 C443.74,291.71 438.77,297.30 438.65,298.08 C438.29,300.31 436.23,303.53 435.32,303.25 C434.87,303.11 434.50,303.40 434.50,303.89 C434.50,304.38 433.38,305.76 432.00,306.96 C430.62,308.17 430.17,308.80 431.00,308.37 C432.33,307.67 432.33,307.82 431.00,309.70 C430.17,310.86 427.33,315.00 424.68,318.90 C422.02,322.80 419.07,326.55 418.10,327.24 C417.14,327.94 414.86,331.76 413.03,335.75 C411.20,339.74 409.29,343.00 408.79,343.00 C408.29,343.00 408.16,343.45 408.50,344.00 C408.84,344.55 408.61,345.00 408.00,345.00 C407.39,345.00 407.16,345.45 407.50,346.00 C407.84,346.55 407.64,347.00 407.06,347.00 C406.48,347.00 406.09,347.34 406.21,347.75 C406.56,349.05 402.88,359.00 402.04,359.00 C401.60,359.00 400.06,363.39 398.61,368.75 ZM 439.95 461.25 C442.43,461.51 445.45,462.09 449.19,462.99 C445.89,462.25 442.45,461.59 439.95,461.25 ZM 430.86 462.92 C431.74,462.20 432.78,461.70 434.08,461.40 C432.81,461.73 431.67,462.26 430.86,462.92 Z" fill="rgba(52,7,207,1)"/>
<path d="M 510.74 268.77 C514.21,265.04 516.76,261.96 516.72,261.50 C516.68,260.95 514.81,258.55 512.57,256.17 C505.21,248.33 504.32,244.92 509.00,242.50 C510.65,241.65 512.00,240.70 512.00,240.39 C512.00,238.50 477.73,259.75 471.70,265.39 C470.16,266.82 468.49,268.00 467.98,268.00 C467.48,268.00 466.59,268.90 466.00,270.00 C465.41,271.10 464.32,272.00 463.58,272.00 C462.84,272.00 461.03,273.58 459.55,275.52 C458.45,276.96 457.30,278.08 456.59,278.44 C457.22,277.70 457.01,277.74 456.03,278.52 C455.57,278.26 454.66,278.70 453.99,279.51 C453.55,280.04 453.32,280.51 453.34,280.78 C450.21,283.53 446.27,287.48 441.77,292.38 C441.09,292.16 440.11,293.28 439.55,294.81 C436.87,297.79 434.01,301.06 431.03,304.59 C431.00,304.62 430.97,304.66 430.94,304.69 C431.23,303.88 431.46,302.74 431.54,301.59 C431.80,297.60 433.65,294.67 435.27,295.67 C435.86,296.03 436.01,295.83 435.62,295.20 C434.56,293.48 437.35,287.79 442.41,281.35 C444.93,278.13 447.00,274.94 447.00,274.25 C447.00,273.52 445.71,273.00 443.86,273.00 C441.80,273.00 439.93,272.14 438.41,270.50 C436.29,268.21 435.03,267.84 428.19,267.52 C426.92,267.46 425.51,266.82 425.06,266.09 C424.73,265.57 423.83,266.42 422.53,268.27 C426.93,261.10 431.77,254.02 437.07,247.00 C449.62,230.36 478.76,204.91 496.50,195.10 C498.70,193.88 499.38,193.68 498.00,194.66 C496.62,195.63 493.85,198.17 491.83,200.30 C488.62,203.68 488.22,204.63 488.68,207.83 C489.71,215.04 491.10,218.98 492.94,219.97 C493.98,220.52 495.81,222.58 497.02,224.53 C498.46,226.86 500.23,228.30 502.13,228.68 C503.73,229.00 505.25,229.60 505.51,230.02 C506.05,230.89 501.99,234.11 491.48,241.14 C484.68,245.69 478.50,252.00 480.84,252.00 C482.73,252.00 480.73,256.53 477.63,259.27 C475.91,260.79 481.70,257.59 490.50,252.15 C514.11,237.57 522.82,233.46 547.50,225.26 C561.13,220.73 576.84,217.34 579.51,218.36 C581.17,219.00 581.13,219.24 578.98,221.52 C576.10,224.59 576.65,225.25 581.06,223.98 C582.94,223.44 586.06,223.01 587.99,223.03 C590.65,223.05 588.73,223.98 580.00,226.88 C553.11,235.82 529.52,250.17 510.74,268.77 ZM 653.04 357.34 C649.90,358.21 647.07,360.72 645.56,364.14 L 643.86 368.00 L 627.18 368.14 C598.00,368.39 573.55,367.51 564.71,365.90 C561.29,365.27 555.80,364.40 552.50,363.95 C549.20,363.51 543.24,362.51 539.25,361.72 C535.26,360.94 532.00,360.49 532.00,360.72 C532.00,360.95 530.63,360.16 528.95,358.96 C527.06,357.62 524.96,356.97 523.47,357.25 C521.66,357.60 520.86,357.18 520.32,355.61 C519.93,354.45 519.69,353.16 519.80,352.75 C519.95,352.21 519.93,351.94 519.79,351.91 C520.52,351.03 521.32,350.16 522.11,349.39 L 526.09 345.50 L 591.50 344.50 L 592.03 322.50 C592.43,305.92 592.62,303.58 592.79,313.00 C592.96,321.51 593.34,325.02 594.00,324.00 C594.78,322.79 594.97,322.95 594.98,324.81 C594.99,326.08 595.43,326.85 595.95,326.53 C596.85,325.98 597.95,329.16 599.49,336.74 C600.14,339.92 601.30,341.26 603.73,341.63 C604.40,341.73 606.15,342.76 607.61,343.91 C609.07,345.06 611.04,346.00 611.98,346.00 C612.92,346.00 616.12,346.84 619.09,347.86 C622.07,348.88 624.85,349.75 625.28,349.78 C625.70,349.82 628.95,350.78 632.48,351.92 C636.02,353.06 639.85,354.00 641.00,354.00 C642.14,354.00 644.75,354.84 646.79,355.86 C648.71,356.82 651.02,357.29 653.04,357.34 ZM 475.97 320.66 C480.88,307.74 487.72,295.94 496.84,284.44 C493.10,289.25 489.64,294.28 486.48,299.50 C482.26,306.47 478.79,313.41 475.97,320.66 ZM 416.29 279.06 C411.52,288.18 405.89,300.38 402.24,310.09 C406.12,299.47 410.79,289.16 416.29,279.06 ZM 394.10 384.82 C393.91,381.56 395.34,375.04 397.72,367.41 C395.65,374.82 393.97,382.65 394.10,384.82 ZM 405.15 347.48 C406.04,345.43 406.95,343.43 407.88,341.50 C409.39,338.36 411.69,334.19 414.25,329.80 C410.93,335.68 407.79,341.77 405.15,347.48 ZM 657.88 352.39 C657.82,353.00 657.85,354.29 657.95,355.25 C658.06,356.36 657.56,356.87 656.14,356.98 C657.30,356.62 658.01,356.00 657.93,355.14 C657.84,354.24 657.82,353.00 657.88,352.39 ZM 451.73 283.58 C450.88,284.54 449.78,285.70 448.55,286.95 C447.89,287.62 447.24,288.25 446.62,288.83 C447.60,287.81 448.63,286.75 449.69,285.67 C450.43,284.92 451.11,284.22 451.73,283.58 ZM 398.61 368.75 C400.06,363.39 401.60,359.00 402.04,359.00 C401.62,359.00 400.10,363.55 398.46,369.32 C398.51,369.13 398.56,368.94 398.61,368.75 ZM 438.84 297.68 C438.79,297.89 438.75,298.08 438.71,298.25 C438.48,299.23 438.00,300.31 437.44,301.20 C438.01,300.22 438.49,299.06 438.65,298.08 C438.66,298.00 438.73,297.86 438.84,297.68 ZM 516.12 375.81 C516.14,377.21 516.16,378.72 516.18,380.33 C516.38,393.83 516.61,400.56 517.91,404.65 C516.62,400.59 516.37,393.92 516.18,380.63 C516.15,378.93 516.14,377.33 516.12,375.81 ZM 517.34 355.33 C517.05,355.94 516.81,356.64 516.63,357.59 C516.74,356.87 516.86,356.35 516.99,356.02 C517.08,355.82 517.19,355.58 517.34,355.33 ZM 427.09 309.61 C427.63,308.87 428.12,308.21 428.55,307.67 C428.07,308.29 427.58,308.94 427.09,309.61 ZM 434.60 303.50 C434.53,303.61 434.50,303.75 434.50,303.89 C434.50,303.74 434.53,303.61 434.60,303.50 Z" fill="rgba(48,127,251,1)"/>
<path d="M 441.41 525.88 C433.65,516.77 432.56,515.32 425.48,504.90 C415.23,489.81 404.89,469.38 399.64,453.86 C393.48,435.65 390.83,422.87 389.93,403.60 L 390.42 410.50 L 391.08 403.00 C393.33,377.74 398.23,360.44 409.50,338.01 C411.77,333.48 416.28,326.00 420.69,319.21 C415.89,326.79 410.61,335.84 407.88,341.50 C400.34,357.14 393.70,378.03 394.10,384.82 C394.16,385.74 394.60,384.70 395.09,382.50 C397.32,372.53 401.32,359.00 402.04,359.00 C402.88,359.00 406.56,349.05 406.21,347.75 C406.09,347.34 406.48,347.00 407.06,347.00 C407.64,347.00 407.84,346.55 407.50,346.00 C407.16,345.45 407.39,345.00 408.00,345.00 C408.61,345.00 408.84,344.55 408.50,344.00 C408.16,343.45 408.29,343.00 408.79,343.00 C409.29,343.00 411.20,339.74 413.03,335.75 C414.86,331.76 417.14,327.94 418.10,327.24 C419.07,326.55 422.02,322.80 424.68,318.90 C427.33,315.00 430.17,310.86 431.00,309.70 C432.33,307.82 432.33,307.67 431.00,308.37 C430.17,308.80 430.62,308.17 432.00,306.96 C433.38,305.76 434.50,304.38 434.50,303.89 C434.50,303.40 434.91,303.04 435.41,303.09 C436.35,303.18 438.20,300.47 438.71,298.25 C438.87,297.56 439.13,296.44 439.28,295.75 C439.75,293.65 441.10,291.94 441.90,292.44 C442.31,292.69 445.31,290.23 448.55,286.95 C451.79,283.68 454.06,281.00 453.60,281.00 C453.13,281.00 453.31,280.33 453.99,279.51 C454.67,278.69 455.60,278.25 456.05,278.53 C456.50,278.81 458.08,277.45 459.55,275.52 C461.03,273.58 462.84,272.00 463.58,272.00 C464.32,272.00 465.41,271.10 466.00,270.00 C466.59,268.90 467.48,268.00 467.98,268.00 C468.49,268.00 470.16,266.82 471.70,265.39 C475.53,261.81 490.72,251.95 501.32,245.70 C501.33,245.73 501.35,245.76 501.37,245.78 C501.74,246.39 501.42,247.24 500.67,247.69 C497.30,249.67 496.07,255.74 495.70,272.16 C495.59,276.92 495.84,280.60 496.25,280.35 C497.68,279.46 496.99,280.76 495.31,282.13 C493.85,283.31 493.74,283.29 494.50,282.00 C495.24,280.74 495.13,280.71 493.82,281.77 C492.96,282.47 492.25,284.12 492.25,285.44 C492.25,288.62 494.13,287.83 497.67,283.16 C499.20,281.15 504.29,275.51 508.98,270.64 C509.11,270.50 509.25,270.35 509.38,270.21 C509.14,270.47 508.89,270.74 508.63,271.00 C480.21,300.57 468.03,329.91 466.07,373.50 C465.70,381.75 465.27,386.92 465.12,385.00 C464.97,383.08 464.61,382.09 464.32,382.80 C463.91,383.83 463.55,383.78 462.65,382.59 C461.89,381.60 459.49,381.01 455.65,380.87 C451.70,380.72 449.63,380.19 449.26,379.24 C448.82,378.08 448.57,378.07 447.88,379.17 C447.30,380.08 446.99,379.55 446.90,377.50 C446.64,371.40 445.13,382.14 444.44,395.00 C444.41,395.65 444.38,396.31 444.35,396.97 C444.41,393.61 444.57,390.24 444.83,386.89 C446.34,367.58 446.13,363.13 443.73,363.30 C442.44,363.39 441.43,365.22 440.05,369.96 C437.09,380.13 436.00,389.65 436.00,405.19 C436.01,427.32 439.36,443.98 446.32,456.50 C449.28,461.82 450.21,462.69 454.58,464.21 C455.10,464.39 455.59,464.56 456.05,464.71 C454.61,464.35 452.98,463.94 451.28,463.51 C439.37,460.48 434.06,460.32 430.86,462.92 C427.37,465.75 427.87,474.40 432.34,488.50 C437.26,504.00 438.42,506.96 444.98,520.68 C445.68,522.16 446.31,523.49 446.86,524.67 C446.59,524.12 446.31,523.55 446.02,522.94 C443.36,517.50 440.95,512.48 440.67,511.78 C440.27,510.78 439.93,510.82 439.15,511.95 C438.50,512.88 438.48,514.03 439.09,515.17 C439.85,516.58 439.72,516.83 438.51,516.37 C437.36,515.92 437.14,516.24 437.62,517.64 C438.00,518.72 436.92,518.03 435.05,516.00 L 431.84 512.50 L 434.12 516.00 C435.37,517.92 439.06,522.76 442.33,526.75 C444.01,528.80 445.61,530.66 446.83,531.98 C445.42,530.49 443.47,528.30 441.41,525.88 ZM 516.11 364.80 C516.10,365.69 516.10,366.66 516.12,367.70 C516.18,373.09 516.44,376.71 516.69,375.74 C516.94,374.77 517.57,374.23 518.08,374.55 C518.58,374.86 519.00,374.64 519.00,374.06 C519.00,373.48 519.63,373.00 520.40,373.00 C521.27,373.00 522.25,374.98 522.99,378.25 C523.64,381.14 524.83,384.95 525.62,386.73 C527.56,391.04 533.28,395.36 535.93,394.52 C537.86,393.91 541.75,395.41 550.00,399.95 C551.92,401.01 555.71,402.16 558.42,402.52 C561.88,402.98 562.92,403.44 561.92,404.07 C560.92,404.70 561.53,404.99 564.00,405.03 C573.65,405.18 595.15,407.88 596.66,409.13 C600.04,411.92 601.87,416.08 600.93,418.86 C599.96,421.76 597.08,440.53 596.86,445.43 C596.73,448.20 596.65,448.12 596.00,444.50 L 595.28 440.50 L 594.96 445.00 C594.71,448.35 594.47,447.33 594.00,441.00 C593.53,434.66 593.33,437.65 593.19,452.80 C592.99,474.48 593.28,476.14 598.16,480.70 C593.29,476.14 593.00,474.52 592.99,451.30 C592.99,439.31 592.70,426.46 592.35,422.75 L 591.71 416.00 L 563.11 415.99 C533.50,415.99 529.62,415.57 523.94,411.74 C517.04,407.09 516.54,405.07 516.18,380.33 C516.08,373.30 516.05,368.36 516.11,364.80 ZM 501.83 245.40 C507.68,241.97 512.00,239.72 512.00,240.39 C512.00,240.70 510.65,241.65 509.00,242.50 C506.89,243.59 505.91,244.88 506.15,246.69 C506.08,246.33 506.04,245.98 506.04,245.63 C506.01,244.10 505.73,243.98 504.54,244.96 C503.74,245.63 502.55,245.84 501.89,245.43 C501.87,245.42 501.85,245.41 501.83,245.40 ZM 389.82 365.65 C390.11,359.44 390.67,355.15 391.70,349.38 C394.10,336.02 396.78,325.66 401.01,313.50 C395.07,330.58 391.34,348.03 389.82,365.65 ZM 447.49 432.25 C450.19,444.78 454.43,455.78 459.66,462.75 C461.00,464.54 461.87,466.00 461.58,466.00 C461.51,466.00 461.21,465.94 460.72,465.83 C461.62,465.69 461.11,464.70 459.60,462.72 C454.28,455.74 450.11,444.94 447.49,432.25 ZM 433.25 296.27 C432.60,297.04 432.05,298.34 431.75,299.91 C431.73,298.67 432.40,297.16 433.25,296.27 ZM 430.85 304.93 C430.67,305.39 430.46,305.72 430.26,305.85 C430.05,305.98 429.78,306.23 429.44,306.60 C429.98,305.92 430.46,305.35 430.85,304.93 ZM 517.50 355.00 C516.87,356.24 516.48,357.99 516.27,360.64 C516.48,357.69 516.85,356.26 517.46,355.08 C517.47,355.05 517.49,355.02 517.50,355.00 ZM 435.81 295.81 C435.74,295.89 435.56,295.84 435.27,295.67 C435.14,295.59 435.01,295.53 434.88,295.50 C435.00,295.52 435.11,295.57 435.22,295.64 C435.54,295.83 435.73,295.88 435.81,295.81 Z" fill="rgba(74,46,243,1)"/>
<path d="M 739.97 371.42 L 737.00 371.20 C734.20,370.98 734.00,371.20 734.00,374.43 C734.00,378.86 732.45,379.77 729.54,377.04 C727.40,375.03 726.52,374.91 717.37,375.41 C683.99,377.25 656.86,378.15 655.30,377.47 C654.31,377.04 653.02,376.65 652.43,376.60 C651.84,376.54 649.40,374.58 647.01,372.23 L 642.69 368.01 L 643.86 368.00 L 645.56 364.14 C647.45,359.85 651.41,357.00 655.47,357.00 C657.40,357.00 658.08,356.52 657.95,355.25 C657.85,354.29 657.82,353.00 657.88,352.39 C657.97,351.60 667.92,351.24 692.13,351.15 C726.51,351.02 729.59,350.71 728.33,347.43 C727.52,345.31 728.90,345.68 732.74,348.62 C738.87,353.29 739.82,354.59 739.97,371.42 ZM 584.29 367.56 C574.99,367.25 569.24,366.72 564.71,365.90 C568.57,366.60 575.40,367.17 584.29,367.56 Z" fill="rgba(153,175,254,1)"/>
<path d="M 689.62 376.79 C686.58,376.94 683.50,377.08 680.50,377.23 C654.32,378.46 653.33,378.58 647.90,381.25 C644.82,382.76 641.64,384.00 640.83,384.00 C640.02,384.00 637.59,385.34 635.43,386.97 C633.27,388.61 631.01,389.96 630.42,389.97 C629.82,389.99 628.13,391.35 626.66,393.00 C625.19,394.65 621.90,396.98 619.35,398.18 C616.26,399.63 613.66,401.89 611.60,404.93 C609.90,407.44 607.02,410.95 605.21,412.72 C603.40,414.50 601.50,417.20 600.98,418.72 C600.45,420.31 599.40,426.26 598.48,432.27 C599.39,426.29 600.42,420.39 600.93,418.86 C601.87,416.08 600.04,411.92 596.66,409.13 C595.15,407.88 573.65,405.18 564.00,405.03 C561.53,404.99 560.92,404.70 561.92,404.07 C562.92,403.44 561.88,402.98 558.42,402.52 C555.71,402.16 551.92,401.01 550.00,399.95 C541.75,395.41 537.86,393.91 535.93,394.52 C533.28,395.36 527.56,391.04 525.62,386.73 C524.83,384.95 523.64,381.14 522.99,378.25 C522.25,374.98 521.27,373.00 520.40,373.00 C519.63,373.00 519.00,373.48 519.00,374.06 C519.00,374.64 518.58,374.86 518.08,374.55 C517.57,374.23 516.94,374.77 516.69,375.74 C516.44,376.71 516.18,373.09 516.12,367.70 C516.03,360.68 516.43,357.06 517.53,354.95 C518.92,352.25 520.28,350.94 519.80,352.75 C519.69,353.16 519.93,354.45 520.32,355.61 C520.86,357.18 521.66,357.60 523.47,357.25 C524.96,356.97 527.06,357.62 528.95,358.96 C530.63,360.16 532.00,360.95 532.00,360.72 C532.00,360.49 535.26,360.94 539.25,361.72 C543.24,362.51 549.20,363.51 552.50,363.95 C555.80,364.40 561.29,365.27 564.71,365.90 C573.05,367.42 585.50,367.91 616.57,367.94 L 642.65 367.97 L 647.01 372.23 C649.40,374.58 651.84,376.54 652.43,376.60 C653.02,376.65 654.31,377.04 655.30,377.47 C656.39,377.95 670.05,377.64 689.62,376.79 ZM 389.57 398.53 C387.55,369.79 391.40,341.17 401.01,313.50 C407.39,295.09 423.44,263.47 425.06,266.09 C425.51,266.82 426.92,267.46 428.19,267.52 C435.03,267.84 436.29,268.21 438.41,270.50 C439.93,272.14 441.80,273.00 443.86,273.00 C445.71,273.00 447.00,273.52 447.00,274.25 C447.00,274.94 444.93,278.13 442.41,281.35 C437.35,287.79 434.56,293.48 435.62,295.20 C436.02,295.85 435.86,296.03 435.22,295.64 C433.54,294.60 430.92,298.98 432.01,301.01 C432.66,302.24 432.34,303.33 430.86,304.92 C426.76,309.32 413.91,329.23 409.50,338.01 C398.23,360.44 393.33,377.74 391.08,403.00 L 390.42 410.50 ZM 452.67 463.49 C449.85,462.28 448.79,460.94 446.32,456.50 C439.36,443.98 436.01,427.32 436.00,405.19 C436.00,389.65 437.09,380.13 440.05,369.96 C441.43,365.22 442.44,363.39 443.73,363.30 C446.13,363.13 446.34,367.58 444.83,386.89 C442.85,412.29 446.80,438.27 454.68,454.55 C454.52,454.24 454.36,453.94 454.20,453.64 L 451.16 447.78 L 451.51 452.64 C451.70,455.31 451.89,458.92 451.93,460.65 C451.96,462.08 452.10,462.90 452.67,463.49 ZM 492.25 285.44 C492.25,284.12 492.96,282.47 493.82,281.77 C495.13,280.71 495.24,280.74 494.50,282.00 C493.74,283.29 493.85,283.31 495.31,282.13 C496.99,280.76 497.68,279.46 496.25,280.35 C495.84,280.60 495.59,276.92 495.70,272.16 C496.07,255.74 497.30,249.67 500.67,247.69 C501.42,247.24 501.74,246.39 501.37,245.78 C500.95,245.11 501.16,244.98 501.89,245.43 C502.55,245.84 503.74,245.63 504.54,244.96 C505.73,243.98 506.01,244.10 506.04,245.63 C506.09,248.30 507.89,251.18 512.78,256.39 C515.13,258.89 517.16,261.13 517.28,261.36 C517.40,261.59 513.66,265.76 508.98,270.64 C504.29,275.51 499.20,281.15 497.67,283.16 C494.13,287.83 492.25,288.62 492.25,285.44 ZM 442.33 526.75 C439.06,522.76 435.37,517.92 434.12,516.00 L 431.84 512.50 L 435.05 516.00 C436.92,518.03 438.00,518.72 437.62,517.64 C437.14,516.24 437.36,515.92 438.51,516.37 C439.72,516.83 439.85,516.58 439.09,515.17 C438.48,514.03 438.50,512.88 439.15,511.95 C439.93,510.82 440.27,510.78 440.67,511.78 C440.95,512.48 443.36,517.50 446.02,522.94 C450.43,531.96 450.97,534.00 448.97,534.00 C448.58,534.00 445.60,530.74 442.33,526.75 ZM 461.13 465.59 C460.96,465.95 460.22,465.92 458.81,465.55 C460.17,465.84 460.91,465.88 461.13,465.59 Z" fill="rgba(84,83,253,1)"/>
<path d="M 746.51 494.99 C736.45,505.04 724.90,514.71 717.12,519.51 C713.74,521.59 711.14,523.47 711.35,523.68 C711.91,524.24 731.24,512.69 740.50,506.25 C745.32,502.91 747.54,501.75 746.08,503.35 C744.74,504.81 744.21,506.00 744.88,506.00 C745.56,506.00 745.84,506.45 745.50,507.00 C745.14,507.58 746.14,508.00 747.88,508.00 C749.53,508.00 751.16,507.55 751.50,507.00 C751.84,506.45 754.35,506.00 757.08,506.00 C759.82,506.00 764.63,505.08 767.77,503.96 C770.92,502.83 776.20,500.99 779.50,499.87 C782.80,498.75 787.08,496.63 789.00,495.17 C790.92,493.70 792.84,492.62 793.25,492.75 C793.67,492.89 796.33,490.76 799.18,488.01 C802.03,485.27 804.50,483.17 804.68,483.35 C805.42,484.08 782.94,505.05 775.64,510.44 C739.86,536.87 697.67,551.05 650.00,552.68 C620.83,553.68 596.33,549.78 571.07,540.12 C570.60,539.94 570.16,539.76 569.74,539.59 C576.96,542.46 590.36,544.92 606.17,545.99 C637.66,548.13 670.19,542.07 697.88,528.93 C703.59,526.22 708.82,524.00 709.51,524.00 C710.19,524.00 711.30,523.35 711.96,522.55 C712.62,521.75 715.08,520.17 717.43,519.04 C722.77,516.45 735.99,505.46 746.51,494.99 ZM 497.00 478.41 C486.40,475.48 481.00,473.10 481.00,471.35 C481.00,470.20 483.27,469.46 484.33,470.25 C484.52,470.39 486.38,469.00 488.47,467.16 L 492.27 463.82 L 500.14 471.64 C504.46,475.94 508.00,479.80 508.00,480.23 C508.00,481.30 506.70,481.09 497.00,478.41 ZM 564.02 534.93 C564.02,534.91 564.02,534.88 564.02,534.86 C564.01,534.51 565.57,532.03 567.49,529.36 C565.69,531.87 564.20,534.27 564.02,534.93 Z" fill="rgba(153,4,166,1)"/>
<path d="M 736.55 407.27 C736.49,407.27 736.39,407.30 736.25,407.39 C735.56,407.79 735.00,407.67 735.00,407.13 C735.00,405.28 731.52,405.03 726.59,406.52 C722.73,407.68 715.35,408.00 691.91,408.00 C667.02,408.00 661.62,407.94 659.44,410.56 C658.79,411.35 658.43,412.38 657.92,413.72 C657.41,415.05 656.99,424.54 656.98,434.82 C656.97,447.25 656.65,453.00 656.00,452.00 C655.20,450.75 655.03,450.84 655.02,452.49 C655.00,453.89 654.42,453.38 652.99,450.72 C651.71,448.33 650.62,443.44 649.98,437.24 C648.39,421.83 648.24,421.56 639.71,419.56 C632.06,417.77 623.81,415.39 620.50,414.04 C619.40,413.59 616.12,412.72 613.20,412.12 C608.37,411.11 607.65,411.20 604.97,413.18 C604.66,413.41 604.34,413.68 604.03,413.99 C604.42,413.54 604.81,413.11 605.21,412.72 C607.02,410.95 609.90,407.44 611.60,404.93 C613.66,401.89 616.26,399.63 619.35,398.18 C621.90,396.98 625.19,394.65 626.66,393.00 C628.13,391.35 629.82,389.99 630.42,389.97 C631.01,389.96 633.27,388.61 635.43,386.97 C637.59,385.34 640.02,384.00 640.83,384.00 C641.64,384.00 644.82,382.76 647.90,381.25 C653.33,378.58 654.32,378.46 680.50,377.23 C695.35,376.52 711.94,375.71 717.37,375.41 C726.51,374.91 727.40,375.03 729.54,377.04 C732.45,379.77 734.00,378.86 734.00,374.43 C734.00,371.20 734.20,370.98 737.00,371.20 L 740.00 371.43 L 740.00 387.01 C740.00,397.15 739.61,402.99 738.88,403.72 C738.27,404.33 737.25,405.87 736.62,407.14 C736.60,407.18 736.57,407.23 736.55,407.27 ZM 528.39 499.86 C525.36,499.38 522.64,499.05 521.50,499.04 L 518.50 499.01 L 521.50 500.87 C523.15,501.89 525.51,503.92 526.74,505.37 C528.90,507.90 528.91,508.00 527.01,508.00 C524.28,508.00 502.13,503.34 493.00,500.84 C488.88,499.71 480.48,496.81 474.34,494.40 C463.60,490.17 461.00,489.41 461.00,490.51 C461.00,491.30 474.75,523.10 486.77,550.11 C497.03,573.15 501.79,585.55 500.77,586.56 C500.52,586.81 498.73,585.47 496.78,583.58 C493.00,579.91 489.25,579.36 489.84,582.56 C490.02,583.57 492.40,588.81 495.11,594.22 C495.88,595.76 496.56,597.07 497.17,598.21 C494.66,593.84 491.70,587.45 487.98,578.50 C485.93,573.55 480.64,561.62 476.24,552.00 C461.12,518.95 451.24,493.78 450.32,486.03 C449.76,481.34 449.86,481.07 452.36,480.45 C454.20,479.98 459.36,481.30 469.74,484.88 C477.86,487.69 490.12,491.34 497.00,493.00 C503.88,494.66 511.30,496.55 513.50,497.19 C515.70,497.84 517.77,498.30 518.11,498.23 C518.42,498.16 522.93,498.88 528.39,499.86 ZM 455.75 464.80 C452.45,463.92 451.99,463.43 451.93,460.65 C451.89,458.92 451.70,455.31 451.51,452.64 L 451.16 447.78 L 454.20 453.64 C455.88,456.86 458.34,460.96 459.67,462.75 C462.28,466.24 461.91,466.43 455.75,464.80 ZM 676.02 416.00 L 695.32 415.80 C715.94,415.60 722.62,415.47 726.16,414.66 C725.81,414.78 725.46,414.89 725.12,414.98 C723.09,415.55 709.11,415.99 693.32,415.99 L 676.02 416.00 ZM 548.11 502.97 C542.96,502.25 537.93,501.49 534.56,500.92 C538.54,501.57 543.41,502.30 548.11,502.97 Z" fill="rgba(166,75,251,1)"/>
<path d="M 604.01 484.41 C602.09,483.57 599.46,481.90 598.16,480.70 C593.28,476.14 592.99,474.48 593.19,452.80 C593.33,437.65 593.53,434.66 594.00,441.00 C594.47,447.33 594.71,448.35 594.96,445.00 L 595.28 440.50 L 596.00 444.50 C596.65,448.12 596.73,448.20 596.86,445.43 C597.09,440.40 599.99,421.74 601.05,418.42 C601.60,416.73 603.36,414.37 604.97,413.18 C607.65,411.20 608.37,411.11 613.20,412.12 C616.12,412.72 619.40,413.59 620.50,414.04 C623.81,415.39 632.06,417.77 639.71,419.56 C648.24,421.56 648.39,421.83 649.98,437.24 C650.62,443.44 651.71,448.33 652.99,450.72 C654.42,453.38 655.00,453.89 655.02,452.49 C655.03,450.84 655.20,450.75 656.00,452.00 C656.65,453.00 656.97,447.25 656.98,434.82 C656.99,424.54 657.41,415.05 657.92,413.72 C658.43,412.38 658.79,411.35 659.44,410.56 C661.62,407.94 667.02,408.00 691.91,408.00 C715.35,408.00 722.73,407.68 726.59,406.52 C731.52,405.03 735.00,405.28 735.00,407.13 C735.00,407.67 735.56,407.79 736.25,407.39 C736.94,406.99 736.60,407.68 735.50,408.93 C734.40,410.19 731.70,412.18 729.50,413.36 C725.71,415.39 723.95,415.52 695.32,415.80 L 665.14 416.11 L 664.82 444.30 C664.48,474.66 664.32,475.57 658.83,480.70 C653.76,485.44 650.47,486.00 628.28,485.96 C611.99,485.93 606.75,485.59 604.01,484.41 ZM 551.63 594.51 C544.93,591.98 538.51,589.16 532.50,586.09 C529.20,584.41 525.98,583.02 525.35,583.01 C524.71,583.01 521.49,587.39 518.19,592.75 C514.89,598.11 511.02,603.59 509.59,604.93 C507.05,607.30 506.90,607.32 503.51,605.71 C500.66,604.35 499.17,602.31 495.11,594.22 C492.40,588.81 490.02,583.57 489.84,582.56 C489.25,579.36 493.00,579.91 496.78,583.58 C498.73,585.47 500.52,586.81 500.77,586.56 C501.79,585.55 497.03,573.15 486.77,550.11 C474.75,523.10 461.00,491.30 461.00,490.51 C461.00,489.41 463.60,490.17 474.34,494.40 C480.48,496.81 488.88,499.71 493.00,500.84 C502.13,503.34 524.28,508.00 527.01,508.00 L 526.98 508.00 C525.04,508.00 524.99,508.42 525.63,519.25 C526.04,526.10 527.19,533.58 528.57,538.38 C529.82,542.71 530.63,546.79 530.38,547.45 C529.77,549.04 533.30,557.18 535.34,558.87 C537.40,560.57 540.13,565.99 539.47,567.05 C539.19,567.50 539.43,568.15 539.99,568.49 C541.09,569.18 549.45,581.13 549.48,582.07 C549.49,582.39 550.35,583.49 551.38,584.53 C552.48,585.62 552.82,586.56 552.19,586.77 C551.60,586.97 551.34,587.73 551.62,588.46 C551.90,589.19 551.16,590.47 549.97,591.31 C547.97,592.71 547.89,592.85 551.63,594.51 ZM 606.32 607.50 C596.36,606.46 586.20,604.65 576.23,602.16 C586.32,604.56 597.33,606.56 606.32,607.50 Z" fill="rgba(156,32,244,1)"/>
<path d="M 606.32 607.50 C588.74,605.67 563.46,599.75 552.39,594.85 C547.89,592.86 547.85,592.80 549.97,591.31 C551.16,590.47 551.90,589.19 551.62,588.46 C551.34,587.73 551.60,586.97 552.19,586.77 C552.82,586.56 552.48,585.62 551.38,584.53 C550.35,583.49 549.49,582.39 549.48,582.07 C549.45,581.13 541.09,569.18 539.99,568.49 C539.43,568.15 539.19,567.50 539.47,567.05 C540.13,565.99 537.40,560.57 535.34,558.87 C533.30,557.18 529.77,549.04 530.38,547.45 C530.63,546.79 529.82,542.71 528.57,538.38 C527.19,533.58 526.04,526.10 525.63,519.25 C524.99,508.42 525.04,508.00 526.98,508.00 C528.92,508.00 528.93,507.93 526.79,505.42 C528.53,507.40 530.15,507.95 535.67,508.47 C554.89,510.28 564.00,512.29 564.00,514.70 C564.00,515.42 564.42,516.00 564.93,516.00 C565.45,516.00 566.16,516.93 566.52,518.08 C566.89,519.22 567.41,519.92 567.70,519.64 C568.46,518.87 570.87,521.37 570.29,522.32 C570.02,522.78 570.71,522.57 571.83,521.87 C572.71,521.32 573.67,520.15 574.52,518.74 C572.95,521.59 570.58,525.06 567.49,529.36 C565.57,532.03 564.01,534.51 564.02,534.86 C564.06,536.67 566.17,538.24 571.07,540.12 C581.80,544.22 592.40,547.29 603.27,549.38 C596.49,548.09 589.81,546.44 583.17,544.42 C574.79,541.87 569.71,541.50 576.08,543.91 C577.96,544.62 581.75,546.26 584.50,547.56 C596.29,553.13 607.67,555.46 637.00,558.34 C651.98,559.81 674.79,558.23 694.00,554.40 C759.91,541.26 814.39,500.10 843.94,441.13 C851.31,426.43 860.28,400.77 860.16,394.75 C860.14,393.79 860.57,393.00 861.11,393.00 C861.65,393.00 861.99,392.44 861.88,391.75 C861.77,391.06 861.96,389.38 862.30,388.00 C862.65,386.62 863.92,381.32 865.13,376.21 C866.52,370.37 867.64,367.40 868.15,368.21 C869.88,370.94 868.90,356.87 866.50,344.60 C865.35,338.73 863.98,332.92 862.39,327.19 C864.04,333.06 865.49,339.06 866.74,345.19 C869.31,357.79 869.46,359.94 869.41,385.50 C869.36,410.78 869.19,413.30 866.70,425.11 C863.72,439.30 858.19,458.22 854.35,467.39 C824.78,538.04 767.23,587.24 695.14,603.51 C671.94,608.75 634.57,610.42 606.32,607.50 ZM 804.63 483.59 C804.70,483.47 804.72,483.38 804.68,483.35 C804.50,483.17 802.03,485.27 799.18,488.01 C796.33,490.76 793.67,492.89 793.25,492.75 C792.84,492.62 790.92,493.70 789.00,495.17 C787.08,496.63 782.80,498.75 779.50,499.87 C776.20,500.99 770.92,502.83 767.77,503.96 C764.63,505.08 759.82,506.00 757.08,506.00 C754.35,506.00 751.84,506.45 751.50,507.00 C751.16,507.55 749.53,508.00 747.88,508.00 C746.14,508.00 745.14,507.58 745.50,507.00 C745.84,506.45 745.56,506.00 744.88,506.00 C744.21,506.00 744.74,504.81 746.08,503.35 C747.54,501.75 745.32,502.91 740.50,506.25 C739.47,506.97 738.31,507.75 737.07,508.57 C741.27,505.65 744.97,502.70 750.15,498.33 C771.44,480.37 787.85,457.35 798.49,430.50 C801.66,422.49 806.95,402.32 807.10,397.64 C807.20,394.62 807.23,394.60 808.00,397.00 C808.74,399.31 808.81,399.24 808.97,396.00 C809.13,392.70 809.20,392.63 810.24,394.79 C810.89,396.15 811.92,396.86 812.75,396.54 C813.53,396.24 814.58,396.00 815.08,396.00 C815.59,396.00 816.00,395.33 816.00,394.50 C816.00,393.67 816.34,392.94 816.75,392.87 C817.16,392.80 818.40,392.63 819.50,392.48 C820.60,392.34 822.81,391.71 824.41,391.07 C826.39,390.30 827.65,390.25 828.34,390.94 C829.03,391.63 830.19,391.08 831.93,389.23 C833.34,387.73 835.62,386.42 837.00,386.32 C846.86,385.59 846.86,385.59 850.80,376.00 C851.61,374.03 851.83,375.44 851.86,382.71 C851.96,409.43 835.11,448.11 811.00,476.50 C809.12,478.71 806.96,481.11 804.63,483.59 ZM 776.19 510.02 C780.05,507.07 787.22,500.71 793.40,494.93 C787.12,500.96 780.85,506.51 776.19,510.02 ZM 632.53 552.66 C638.19,552.88 643.99,552.88 650.00,552.68 C667.19,552.09 683.67,549.87 699.39,546.03 C683.77,549.85 667.42,552.08 650.40,552.68 C644.29,552.90 638.34,552.90 632.53,552.66 ZM 719.46 519.48 C714.93,522.12 711.58,523.91 711.35,523.68 C711.33,523.67 711.33,523.64 711.35,523.60 C711.83,523.62 714.77,522.17 719.46,519.48 ZM 825.97 252.50 C836.21,266.40 844.71,281.07 851.53,296.67 C844.71,281.13 836.16,266.33 825.97,252.50 ZM 526.62 505.23 C525.36,503.79 523.10,501.86 521.50,500.87 C523.13,501.88 525.42,503.83 526.62,505.23 Z" fill="rgba(221,20,215,1)"/>
<path d="M 637.00 558.34 C607.67,555.46 596.29,553.13 584.50,547.56 C581.75,546.26 577.96,544.62 576.08,543.91 C569.71,541.50 574.79,541.87 583.17,544.42 C604.45,550.89 626.07,553.55 650.40,552.68 C697.82,550.99 740.02,536.76 775.64,510.43 C784.98,503.53 801.53,487.65 811.00,476.50 C835.11,448.11 851.96,409.43 851.86,382.71 C851.83,375.44 851.61,374.03 850.80,376.00 C846.86,385.59 846.86,385.59 837.00,386.32 C835.62,386.42 833.34,387.73 831.93,389.23 C830.19,391.08 829.03,391.63 828.34,390.94 C827.65,390.25 826.39,390.30 824.41,391.07 C822.81,391.71 820.60,392.34 819.50,392.48 C818.40,392.63 817.16,392.80 816.75,392.87 C816.34,392.94 816.00,393.67 816.00,394.50 C816.00,395.33 815.59,396.00 815.08,396.00 C814.58,396.00 813.53,396.24 812.75,396.54 C811.92,396.86 810.89,396.15 810.24,394.79 C809.20,392.63 809.13,392.70 808.97,396.00 C808.81,399.24 808.74,399.31 808.00,397.00 C807.23,394.60 807.20,394.62 807.10,397.64 C806.95,402.32 801.66,422.49 798.49,430.50 C787.85,457.35 771.44,480.37 750.15,498.33 C740.01,506.89 735.56,510.00 721.86,518.08 C710.88,524.56 707.07,525.71 717.12,519.51 C725.69,514.21 738.85,503.01 749.55,491.90 C768.96,471.73 782.82,447.20 789.32,421.50 C797.57,388.87 794.67,356.07 780.79,325.00 C777.47,317.58 768.00,302.42 762.38,295.51 C759.85,292.41 758.07,289.59 758.42,289.25 C759.36,288.31 771.27,292.31 792.50,300.70 C822.47,312.55 827.20,314.17 829.85,313.50 C832.17,312.92 832.24,312.65 831.71,306.20 C831.15,299.52 824.07,274.76 820.14,265.75 C819.00,263.14 818.24,261.00 818.46,261.00 C818.67,261.00 816.37,255.49 813.34,248.75 C806.70,233.98 804.82,229.00 805.90,229.00 C807.10,229.00 818.39,242.22 825.97,252.50 C846.21,279.96 859.98,311.24 866.50,344.60 C868.90,356.87 869.88,370.94 868.15,368.21 C867.64,367.40 866.52,370.37 865.13,376.21 C863.92,381.32 862.65,386.62 862.30,388.00 C861.96,389.38 861.77,391.06 861.88,391.75 C861.99,392.44 861.65,393.00 861.11,393.00 C860.57,393.00 860.14,393.79 860.16,394.75 C860.28,400.77 851.31,426.43 843.94,441.13 C814.39,500.10 759.91,541.26 694.00,554.40 C674.79,558.23 651.98,559.81 637.00,558.34 ZM 570.29 522.32 C570.87,521.37 568.46,518.87 567.70,519.64 C567.41,519.92 566.89,519.22 566.52,518.08 C566.16,516.93 565.45,516.00 564.93,516.00 C564.42,516.00 564.00,515.42 564.00,514.70 C564.00,512.29 554.89,510.28 535.67,508.47 C530.03,507.94 528.45,507.38 526.67,505.28 C525.47,503.88 523.15,501.89 521.50,500.87 L 518.50 499.01 L 521.50 499.04 C523.15,499.06 528.10,499.74 532.50,500.56 C536.90,501.38 547.47,502.94 556.00,504.02 C571.94,506.06 576.07,507.54 576.85,511.48 C577.34,513.98 574.26,520.35 571.83,521.87 C570.71,522.57 570.02,522.78 570.29,522.32 Z" fill="rgba(250,60,221,1)"/>
</g>
</svg>