<?xml version="1.0" encoding="UTF-8"?>
<svg version="1.1" xmlns="http://www.w3.org/2000/svg" width="646" height="676">
<path d="M0 0 C1.19700086 -0.00551503 1.19700086 -0.00551503 2.41818357 -0.01114148 C5.10116286 -0.02218414 7.78410343 -0.02602314 10.46710205 -0.02983093 C12.38719811 -0.03609512 14.30729296 -0.04274188 16.22738647 -0.04974365 C21.45064853 -0.06715686 26.67390143 -0.0777062 31.89718533 -0.08594918 C35.15984443 -0.09109847 38.42250068 -0.09717422 41.68515778 -0.10346031 C51.89134575 -0.12251295 62.09752648 -0.13674416 72.30372882 -0.14507228 C84.08867913 -0.15484718 95.87344175 -0.18117306 107.65832591 -0.22157317 C116.7650038 -0.25172179 125.87162785 -0.26653995 134.97835469 -0.26985329 C140.41852342 -0.27220511 145.85849164 -0.28118285 151.29860687 -0.30631447 C156.4171244 -0.32957831 161.53530915 -0.33383514 166.65386581 -0.32355309 C168.53118114 -0.32305721 170.40851276 -0.32939276 172.28577805 -0.34310913 C174.85188738 -0.36080762 177.41679979 -0.35373238 179.98291016 -0.34057617 C180.72309977 -0.35154542 181.46328939 -0.36251466 182.22590899 -0.37381631 C188.44576633 -0.29700369 192.31296722 1.64090775 197.00281048 5.64914703 C202.07600417 12.7966432 200.90212598 21.95204047 200.81304932 30.31318665 C200.81163779 32.16655946 200.81243287 34.01993508 200.81526184 35.87330627 C200.81669331 40.88944819 200.78734698 45.9049893 200.75239205 50.9209919 C200.72108375 56.16867634 200.71819428 61.41637536 200.71226501 66.66413879 C200.69673974 76.59464208 200.65572898 86.52486934 200.60551757 96.45525122 C200.54958322 107.76352596 200.52212729 119.07181406 200.49704039 130.38019276 C200.44481207 153.63600506 200.35689526 176.89157256 200.24542236 200.14717102 C201.60267677 200.14302295 201.60267677 200.14302295 202.98735046 200.13879108 C225.01312239 200.07251219 247.0388771 200.02288113 269.06472778 199.9917345 C279.71630436 199.97627154 290.36781432 199.95519287 301.01934814 199.92085266 C310.304193 199.89093291 319.58898961 199.87159187 328.87388134 199.86490554 C333.78928284 199.86099766 338.70454633 199.85182538 343.61990356 199.82998085 C348.24915544 199.80957506 352.87821283 199.80334551 357.50750542 199.80784798 C359.20379125 199.80702461 360.90008379 199.80108338 362.59633064 199.7895546 C364.9190505 199.77454609 367.24104375 199.77824736 369.56378174 199.78640747 C370.86166626 199.78364209 372.15955078 199.78087671 373.49676514 199.77802753 C378.59112033 200.27968664 383.2936952 201.5176455 387.30401611 204.86592102 C387.75905518 205.45373352 388.21409424 206.04154602 388.68292236 206.64717102 C389.1560083 207.23498352 389.62909424 207.82279602 390.11651611 208.42842102 C392.74559846 212.43117616 392.39098796 216.57946365 392.38586426 221.17422485 C392.39032094 222.41516137 392.39032094 222.41516137 392.39486766 223.6811673 C392.40356407 226.46322101 392.4050637 229.24523174 392.40655518 232.02729797 C392.41118267 234.01798088 392.41620724 236.00866289 392.42160034 237.99934387 C392.43473268 243.4146853 392.44117089 248.83001433 392.445611 254.2453692 C392.44854029 257.6272875 392.45264482 261.00920241 392.45711517 264.391119 C392.4707921 274.96839263 392.48045789 285.5456585 392.48431706 296.12294036 C392.48879889 308.34027858 392.50635179 320.55750497 392.53531766 332.77480918 C392.55692043 342.21352885 392.56702059 351.65221703 392.56835818 361.09096116 C392.56940719 366.73058917 392.57533535 372.3701121 392.5931778 378.00971413 C392.60963422 383.31450275 392.61182575 388.61910702 392.60303879 393.92391205 C392.60226712 395.87098115 392.60662815 397.81806005 392.61649704 399.76510429 C392.62918059 402.42334534 392.62335933 405.08092992 392.61291504 407.73916626 C392.62097144 408.50950536 392.62902785 409.27984445 392.63732839 410.07352716 C392.58709735 415.5405729 391.49477954 419.73755429 387.71026611 423.79170227 C382.80034515 427.54634772 380.19052835 428.29268669 374.13345337 428.26742554 C373.39262154 428.26827996 372.65178972 428.26913439 371.88850844 428.2700147 C369.39336049 428.27166856 366.89827901 428.26614967 364.40313721 428.26069641 C362.61961366 428.26041449 360.83609 428.26057236 359.05256653 428.26113892 C354.19952385 428.26142671 349.34650572 428.25553288 344.49346876 428.24856496 C339.42589408 428.24232843 334.35831889 428.24172738 329.29074097 428.24053955 C319.68953339 428.23742712 310.08833715 428.22921491 300.48713458 428.21919006 C289.55863986 428.20802619 278.63014461 428.20251778 267.70164561 428.19749463 C245.21623157 428.18703223 222.7308276 428.16943449 200.24542236 428.14717102 C200.24910954 429.34669183 200.25279671 430.54621264 200.25659561 431.78208256 C200.34324218 460.26147662 200.40919201 488.74086886 200.44968368 517.22036496 C200.45468646 520.72632203 200.45986375 524.23227882 200.46514893 527.73823547 C200.46619817 528.43620316 200.46724741 529.13417084 200.46832845 529.85328906 C200.48572982 541.15209161 200.51726601 552.45081269 200.55403355 563.74956692 C200.59145047 575.34465462 200.61336042 586.93969482 200.62177634 598.53484005 C200.62699423 605.04704623 200.63927085 611.55906766 200.66834259 618.07121468 C200.69548155 624.20003847 200.70387028 630.3286013 200.69785309 636.45747948 C200.69895399 638.70729617 200.70691667 640.95712154 200.72224426 643.20688629 C200.74214785 646.27885976 200.73735963 649.34984818 200.72644043 652.42184448 C200.7380918 653.31193649 200.74974316 654.2020285 200.7617476 655.119093 C200.70561829 660.96200879 199.61721672 664.34290728 196.24542236 669.14717102 C191.29304757 673.62789107 188.18971805 674.30219311 181.68170166 674.35249329 C180.89258266 674.36238722 180.10346367 674.37228115 179.29043198 674.3824749 C176.63353286 674.41439194 173.97661826 674.439075 171.31964111 674.46357727 C169.42315836 674.4843455 167.5266791 674.50543551 165.63020325 674.52682495 C160.47365289 674.58325727 155.31705755 674.63255596 150.16041565 674.67980194 C146.94105755 674.70959573 143.72171889 674.74100803 140.50238037 674.77284241 C108.5166229 675.08634358 76.53125986 675.25311526 44.54397964 675.27010727 C41.50438422 675.27216495 38.46479472 675.27592126 35.42520142 675.28001404 C30.63551242 675.28587455 25.84585592 675.28602017 21.0561657 675.28155327 C19.30903074 675.28052614 17.56189401 675.28105032 15.81476021 675.28331184 C-12.44045172 675.31368233 -12.44045172 675.31368233 -20.00457764 667.95967102 C-23.87694058 661.73623057 -24.05277575 654.39738937 -23.98504639 647.23701477 C-23.98458817 646.42527298 -23.98412994 645.61353119 -23.98365784 644.77719116 C-23.98066057 643.07555157 -23.97285113 641.3739141 -23.96038818 639.6723175 C-23.94209881 637.08766308 -23.93987926 634.50336794 -23.94012451 631.9186554 C-23.93520882 630.2539388 -23.92938028 628.5892246 -23.92254639 626.92451477 C-23.92143356 626.16283493 -23.92032074 625.40115509 -23.91917419 624.61639404 C-23.87642204 619.71697001 -23.44272082 614.9991811 -22.75457764 610.14717102 C-23.41457764 609.81717102 -24.07457764 609.48717102 -24.75457764 609.14717102 C-24.5915918 608.1845636 -24.42860596 607.22195618 -24.26068115 606.23017883 C-23.6243624 601.75328957 -23.62882836 597.33355356 -23.65692139 592.81904602 C-23.65833633 591.94822388 -23.65975128 591.07740173 -23.66120911 590.18019104 C-23.66676861 587.4191482 -23.67930407 584.65818896 -23.69207764 581.89717102 C-23.69709873 580.02738054 -23.70166057 578.15758877 -23.70574951 576.28779602 C-23.71389749 572.8746933 -23.7245488 569.46162129 -23.7387085 566.04853821 C-23.77111497 558.08153148 -23.75457764 550.11424201 -23.75457764 542.14717102 C-24.56366577 542.15161224 -25.37275391 542.15605347 -26.20635986 542.16062927 C-33.85625589 542.20081491 -41.50610024 542.23121057 -49.15607452 542.25079536 C-53.08836902 542.26120279 -57.0205758 542.27530598 -60.95281982 542.29804993 C-64.75240432 542.31988737 -68.5519048 542.33176249 -72.35154724 542.33692551 C-73.79631369 542.34060179 -75.24107589 542.34778035 -76.68580627 542.35863113 C-93.99989268 542.48341944 -93.99989268 542.48341944 -100.56707764 538.39717102 C-107.58466789 531.17907818 -106.90806871 521.47240513 -106.88739014 512.05342102 C-106.88870941 511.08428268 -106.89002869 510.11514435 -106.89138794 509.11663818 C-106.89330118 505.96011648 -106.88696666 502.80368371 -106.87957764 499.64717102 C-106.87824829 498.03360214 -106.87824829 498.03360214 -106.87689209 496.38743591 C-106.85656343 475.29703732 -106.42312997 454.22612827 -105.75457764 433.14717102 C-106.41457764 432.81717102 -107.07457764 432.48717102 -107.75457764 432.14717102 C-107.09457764 432.14717102 -106.43457764 432.14717102 -105.75457764 432.14717102 C-105.75457764 430.82717102 -105.75457764 429.50717102 -105.75457764 428.14717102 C-106.43964701 428.15085819 -107.12471638 428.15454536 -107.83054543 428.15834427 C-124.50632717 428.24671431 -141.18203466 428.31288979 -157.85799599 428.35441971 C-165.92240436 428.37503754 -173.98665636 428.40314309 -182.05096436 428.44892883 C-189.08052087 428.48882064 -196.10996411 428.51460951 -203.13963068 428.523525 C-206.86121098 428.52873584 -210.58246727 428.54096651 -214.30394363 428.57009125 C-218.46032279 428.60235519 -222.61614005 428.60312894 -226.77264404 428.60127258 C-228.00407135 428.61565369 -229.23549866 428.63003479 -230.50424194 428.64485168 C-236.88223798 428.6139729 -240.95506124 428.53241972 -245.75457764 424.14717102 C-250.45965656 418.93343492 -250.90265374 414.97061007 -250.89501953 408.16481018 C-250.89799065 407.34230829 -250.90096178 406.5198064 -250.90402293 405.67238021 C-250.91271917 402.90647996 -250.91421897 400.14062294 -250.91571045 397.37471008 C-250.92033799 395.39550178 -250.92536257 393.41629438 -250.93075562 391.43708801 C-250.94388834 386.05267019 -250.95032635 380.66826484 -250.95476627 375.2838335 C-250.95769578 371.92066848 -250.96180037 368.55750687 -250.96627045 365.19434357 C-250.97994808 354.67419902 -250.98961326 344.15406228 -250.99347234 333.63390946 C-250.99795296 321.48563159 -251.0155 309.33746623 -251.04447293 297.18922257 C-251.06608388 287.80229151 -251.07617632 278.41539211 -251.07751346 269.02843642 C-251.07856196 263.42063433 -251.08447949 257.81293797 -251.10233307 252.20516205 C-251.11880339 246.92909718 -251.12097424 241.65321764 -251.11219406 236.37713623 C-251.11142312 234.44177504 -251.11577397 232.50640394 -251.12565231 230.57106781 C-251.13835875 227.92631332 -251.13250211 225.2822165 -251.12207031 222.63746643 C-251.13012672 221.87393112 -251.13818312 221.11039582 -251.14648366 220.32372308 C-251.09298015 214.51262444 -250.03679027 209.54397174 -245.88739014 205.18623352 C-244.89352295 204.48627258 -244.89352295 204.48627258 -243.87957764 203.77217102 C-242.89344482 203.04900696 -242.89344482 203.04900696 -241.88739014 202.31123352 C-237.89124313 200.13018625 -233.77271143 200.02252123 -229.29393005 200.0269165 C-228.21004501 200.02554184 -227.12615997 200.02416718 -226.00942993 200.02275085 C-224.83051178 200.02634613 -223.65159363 200.02994141 -222.43695068 200.03364563 C-221.18776352 200.0334996 -219.93857635 200.03335358 -218.65153503 200.03320312 C-215.23456091 200.03377967 -211.8176475 200.03878878 -208.40068412 200.04577708 C-204.8265779 200.05203597 -201.25247084 200.05261643 -197.67835999 200.05380249 C-190.91406897 200.05690833 -184.14979415 200.06511165 -177.38551027 200.07515198 C-169.68300381 200.08633632 -161.98049658 200.09182942 -154.27798402 200.09684741 C-138.43683919 200.10729488 -122.5957105 200.12487986 -106.75457764 200.14717102 C-106.72990683 194.05993447 -106.7117316 187.97272685 -106.699646 181.88545227 C-106.69460912 179.81350701 -106.68777939 177.74156532 -106.67913818 175.66963196 C-106.66704443 172.6959902 -106.66134297 169.72239533 -106.65692139 166.74873352 C-106.6517601 165.81848358 -106.64659882 164.88823364 -106.64128113 163.92979431 C-106.6412056 163.06905304 -106.64113007 162.20831177 -106.64105225 161.32148743 C-106.63883163 160.56203827 -106.63661102 159.80258911 -106.63432312 159.02012634 C-106.63856724 157.05503741 -106.63856724 157.05503741 -107.75457764 155.14717102 C-107.50681774 153.59702723 -107.25846564 152.04697687 -107.00799561 150.49726868 C-106.30112873 143.9420658 -106.76678064 137.2198898 -106.88153076 130.6374054 C-107.03375856 113.972939 -107.03375856 113.972939 -103.00457764 107.20967102 C-98.24328588 102.84515358 -93.86960563 101.77036158 -87.51165771 101.69892883 C-86.81334335 101.68713089 -86.11502899 101.67533295 -85.39555359 101.66317749 C-83.1050112 101.62810613 -80.81487139 101.61384748 -78.52410889 101.60029602 C-76.92559935 101.58089335 -75.32710331 101.56034778 -73.72862244 101.53871155 C-70.38744591 101.49645733 -67.04636596 101.46375935 -63.70501709 101.43867493 C-59.42078543 101.40634611 -55.13698354 101.35669379 -50.85300159 101.30075455 C-47.55627297 101.25848493 -44.25950254 101.22201847 -40.96268272 101.18766022 C-39.38260483 101.17112564 -37.80253741 101.15355783 -36.22248268 101.1349411 C-34.01809979 101.11049899 -31.81377732 101.09306678 -29.60931396 101.07783508 C-27.72784416 101.06142975 -27.72784416 101.06142975 -25.80836487 101.04469299 C-22.75457764 101.14717102 -22.75457764 101.14717102 -19.75457764 102.14717102 C-19.76346008 101.04993713 -19.77234253 99.95270325 -19.78149414 98.82221985 C-19.86270094 88.46460421 -19.92260112 78.10705345 -19.96182632 67.74919128 C-19.98267062 62.42452185 -20.01093073 57.10011013 -20.05633545 51.77558899 C-20.09990558 46.63382953 -20.12373849 41.49231744 -20.13408661 36.35038757 C-20.14145793 34.392035 -20.1558524 32.43369543 -20.17749786 30.47544861 C-20.20668031 27.72510382 -20.21052746 24.97577157 -20.2086792 22.22529602 C-20.2230603 21.4218425 -20.23744141 20.61838898 -20.2522583 19.79058838 C-20.21141676 14.146714 -18.89384804 9.87012714 -15.75457764 5.14717102 C-10.75206629 0.38868462 -6.6491608 -0.00163641 0 0 Z " fill="#44AAD4" transform="translate(252.75457763671875,0.8528289794921875)"/>
<path d="M0 0 C0.33 29.04 0.66 58.08 1 88 C2.98 86.68 4.96 85.36 7 84 C9.89222181 83.61974841 12.3970041 83.45140613 15.28100586 83.48242188 C16.0899379 83.4754126 16.89886993 83.46840332 17.73231506 83.46118164 C20.3935122 83.44364617 23.0536367 83.45520927 25.71484375 83.46875 C27.57280175 83.46605353 29.43075837 83.46216983 31.28871155 83.45715332 C35.17820706 83.45126408 39.06733448 83.45980169 42.95678711 83.47851562 C47.93123448 83.50128895 52.90481777 83.48818878 57.87923336 83.46422577 C61.71495517 83.44973865 65.55047377 83.45438739 69.38620186 83.46473694 C71.21974351 83.467397 73.05330387 83.4641599 74.88682365 83.45481873 C77.45490916 83.44460669 80.0216162 83.46021877 82.58959961 83.48242188 C83.34046844 83.47432495 84.09133728 83.46622803 84.86495972 83.45788574 C90.33047485 83.54498992 93.54954315 84.76652072 98 88 C102.04129635 92.57201661 102.56514886 96.49351849 102.45410156 102.39208984 C102.45468567 103.21226593 102.45526978 104.03244202 102.45587158 104.87747192 C102.45309805 107.57239992 102.42204157 110.26620415 102.390625 112.9609375 C102.38315999 114.8356567 102.37746829 116.71038372 102.37347412 118.58511353 C102.35823826 123.50736219 102.31897412 128.42913499 102.2746582 133.35119629 C102.23366128 138.37859663 102.21545367 143.40607425 102.1953125 148.43359375 C102.15247787 158.289271 102.08425137 168.14459585 102 178 C102.97639435 177.99333817 103.9527887 177.98667633 104.95877075 177.97981262 C114.16917219 177.9189458 123.37953272 177.87400061 132.5900898 177.84456348 C137.32511923 177.82892068 142.05998603 177.8077077 146.79492188 177.77368164 C151.36608347 177.74103879 155.93708883 177.72313656 160.508358 177.71536827 C162.25064426 177.70983361 163.99292217 177.6990257 165.73514175 177.68280983 C168.17924599 177.66096987 170.6227081 177.65803578 173.06689453 177.65942383 C173.78403122 177.648638 174.50116791 177.63785217 175.24003601 177.6267395 C180.57345821 177.65942316 184.66266833 178.86808703 188.64453125 182.5 C192.55023128 187.51601609 193.12738766 190.65874351 193.16113281 196.93066406 C193.16609772 197.63186874 193.17106262 198.33307343 193.17617798 199.05552673 C193.19078309 201.37556949 193.19759971 203.69554382 193.203125 206.015625 C193.20887892 207.63124594 193.21463662 209.24686688 193.22039795 210.86248779 C193.230904 214.25191567 193.23674889 217.64131985 193.24023438 221.03076172 C193.24571065 225.36280014 193.26972161 229.69452292 193.29820633 234.02646255 C193.31688176 237.36544695 193.32204097 240.70435616 193.32357025 244.04338837 C193.32658752 245.63970409 193.33458466 247.23601878 193.34775543 248.83228302 C193.36491507 251.0723479 193.36291173 253.31165289 193.35644531 255.55175781 C193.36009094 256.82400208 193.36373657 258.09624634 193.36749268 259.40704346 C192.88788543 264.09613824 191.64974344 268.12777207 188.46484375 271.7421875 C183.39919663 275.49931708 180.62376085 276.14358627 174.42919922 276.11352539 C173.25833267 276.11374443 173.25833267 276.11374443 172.06381226 276.1139679 C169.47740931 276.11326986 166.89107791 276.10548257 164.3046875 276.09765625 C162.51392659 276.09579168 160.72316517 276.09436796 158.93240356 276.09336853 C154.21415809 276.08954641 149.4959433 276.07971871 144.77770996 276.06866455 C139.96509211 276.05844389 135.15246932 276.0538695 130.33984375 276.04882812 C120.89321567 276.03809619 111.44661038 276.0210234 102 276 C102.00888245 276.99922989 102.01776489 277.99845978 102.0269165 279.02796936 C102.10811045 288.45877326 102.16801723 297.88950596 102.20724869 307.32058048 C102.22809631 312.16886561 102.25636226 317.01686788 102.30175781 321.86499023 C102.34531645 326.5463939 102.36915835 331.22752601 102.37950897 335.90911674 C102.38688238 337.69246125 102.40128103 339.4757914 102.42292023 341.25901985 C102.45208795 343.76292813 102.45595051 346.26572373 102.45410156 348.76977539 C102.46848267 349.50201828 102.48286377 350.23426117 102.49768066 350.98869324 C102.45624068 356.19760801 101.474688 360.12170257 98 364 C92.90845428 367.79310851 87.85910337 368.58647502 81.65966797 368.51757812 C80.47268311 368.52809204 80.47268311 368.52809204 79.26171875 368.53881836 C76.67150772 368.55628392 74.08240771 368.5448194 71.4921875 368.53125 C69.6795328 368.53394768 67.86687951 368.5378324 66.05422974 368.54284668 C62.26664367 368.54872574 58.47943638 368.54022835 54.69189453 368.52148438 C49.84519346 368.49866295 44.99937694 368.511848 40.15270805 368.53577423 C36.4139645 368.55024753 32.67542978 368.54561978 28.93667984 368.53526306 C27.14976012 368.5326017 25.36282123 368.5358447 23.57592392 368.54518127 C21.07728764 368.55537603 18.58007367 368.53980773 16.08154297 368.51757812 C15.34892242 368.52567505 14.61630188 368.53377197 13.86148071 368.54211426 C7.10391353 368.43111025 3.63457473 365.63457473 -1 361 C-1.33 386.41 -1.66 411.82 -2 438 C-5.28587992 439.09529331 -7.72071758 439.13353009 -11.18041992 439.14526367 C-12.45572067 439.15164352 -13.73102142 439.15802338 -15.04496765 439.16459656 C-16.4401343 439.16612587 -17.83530145 439.16723949 -19.23046875 439.16796875 C-20.66433241 439.17118349 -22.09819574 439.17454772 -23.53205872 439.17805481 C-26.54066731 439.18404466 -29.54924719 439.18589501 -32.55786133 439.18530273 C-36.39649856 439.18520146 -40.2349494 439.19881854 -44.07354259 439.21607494 C-47.03769256 439.22724696 -50.00179832 439.2292203 -52.96596718 439.22869301 C-54.38002473 439.22986665 -55.79408366 439.23425353 -57.20812035 439.24202538 C-74.26029583 439.32692704 -74.26029583 439.32692704 -80.8125 435.25 C-87.83009026 428.03190716 -87.15349107 418.32523411 -87.1328125 408.90625 C-87.13413177 407.93711166 -87.13545105 406.96797333 -87.1368103 405.96946716 C-87.13872355 402.81294546 -87.13238902 399.65651269 -87.125 396.5 C-87.12367065 394.88643112 -87.12367065 394.88643112 -87.12231445 393.24026489 C-87.10198579 372.1498663 -86.66855233 351.07895725 -86 330 C-86.66 329.67 -87.32 329.34 -88 329 C-87.34 329 -86.68 329 -86 329 C-86 327.68 -86 326.36 -86 325 C-86.68506937 325.00368717 -87.37013874 325.00737434 -88.07596779 325.01117325 C-104.75174953 325.09954329 -121.42745702 325.16571877 -138.10341835 325.20724869 C-146.16782673 325.22786652 -154.23207872 325.25597207 -162.29638672 325.30175781 C-169.32594323 325.34164962 -176.35538648 325.36743849 -183.38505304 325.37635398 C-187.10663334 325.38156482 -190.82788963 325.39379549 -194.549366 325.42292023 C-198.70574515 325.45518417 -202.86156241 325.45595792 -207.01806641 325.45410156 C-208.24949371 325.46848267 -209.48092102 325.48286377 -210.74966431 325.49768066 C-217.12766035 325.46680188 -221.2004836 325.38524869 -226 321 C-230.70507892 315.7862639 -231.1480761 311.82343905 -231.14044189 305.01763916 C-231.14341302 304.19513727 -231.14638414 303.37263538 -231.1494453 302.52520919 C-231.15814154 299.75930893 -231.15964133 296.99345192 -231.16113281 294.22753906 C-231.16576036 292.24833076 -231.17078493 290.26912336 -231.17617798 288.28991699 C-231.1893107 282.90549917 -231.19574872 277.52109382 -231.20018864 272.13666248 C-231.20311814 268.77349746 -231.20722273 265.41033585 -231.21169281 262.04717255 C-231.22537045 251.527028 -231.23503563 241.00689126 -231.2388947 230.48673844 C-231.24337533 218.33846057 -231.26092236 206.19029521 -231.2898953 194.04205155 C-231.31150625 184.65512049 -231.32159868 175.26822109 -231.32293582 165.8812654 C-231.32398433 160.27346331 -231.32990185 154.66576695 -231.34775543 149.05799103 C-231.36422575 143.78192616 -231.3663966 138.50604662 -231.35761642 133.22996521 C-231.35684548 131.29460402 -231.36119633 129.35923292 -231.37107468 127.42389679 C-231.38378111 124.7791423 -231.37792447 122.13504548 -231.36749268 119.49029541 C-231.37554908 118.7267601 -231.38360548 117.9632248 -231.39190602 117.17655206 C-231.33840251 111.36545342 -230.28221264 106.39680072 -226.1328125 102.0390625 C-225.13894531 101.33910156 -225.13894531 101.33910156 -224.125 100.625 C-223.46757812 100.14289063 -222.81015625 99.66078125 -222.1328125 99.1640625 C-218.13666549 96.98301523 -214.01813379 96.87535021 -209.53935242 96.87974548 C-208.45546738 96.87837082 -207.37158234 96.87699615 -206.25485229 96.87557983 C-205.07593414 96.87917511 -203.89701599 96.88277039 -202.68237305 96.88647461 C-201.43318588 96.88632858 -200.18399872 96.88618256 -198.8969574 96.8860321 C-195.47998328 96.88660865 -192.06306986 96.89161776 -188.64610648 96.89860606 C-185.07200026 96.90486495 -181.4978932 96.90544541 -177.92378235 96.90663147 C-171.15949133 96.90973731 -164.39521652 96.91794063 -157.63093263 96.92798096 C-149.92842618 96.9391653 -142.22591894 96.9446584 -134.52340639 96.94967639 C-118.68226155 96.96012386 -102.84113287 96.97770884 -87 97 C-86.97532919 90.91276345 -86.95715396 84.82555583 -86.94506836 78.73828125 C-86.94003148 76.66633599 -86.93320175 74.5943943 -86.92456055 72.52246094 C-86.91246679 69.54881918 -86.90676533 66.57522431 -86.90234375 63.6015625 C-86.89718246 62.67131256 -86.89202118 61.74106262 -86.88670349 60.78262329 C-86.88662796 59.92188202 -86.88655243 59.06114075 -86.88647461 58.17431641 C-86.884254 57.41486725 -86.88203339 56.65541809 -86.87974548 55.87295532 C-86.88398961 53.90786639 -86.88398961 53.90786639 -88 52 C-87.7522401 50.44985621 -87.503888 48.89980585 -87.25341797 47.35009766 C-86.54655109 40.79489478 -87.012203 34.07271878 -87.12695312 27.49023438 C-87.27918092 10.82576797 -87.27918092 10.82576797 -83.25 4.0625 C-78.56704923 -0.23020487 -74.23030876 -1.37586456 -67.97241211 -1.46411133 C-67.29681747 -1.47751556 -66.62122284 -1.4909198 -65.92515564 -1.50473022 C-63.70917909 -1.5448631 -61.49360182 -1.56401359 -59.27734375 -1.58203125 C-57.72846591 -1.60398058 -56.1796018 -1.6269199 -54.63075256 -1.65080261 C-51.39213765 -1.69756041 -48.15361483 -1.73425226 -44.91479492 -1.76342773 C-40.76963516 -1.80130632 -36.6251603 -1.86134547 -32.48038387 -1.92854786 C-29.28483513 -1.97841414 -26.08922394 -2.01801704 -22.89349556 -2.05438805 C-21.36528459 -2.07272617 -19.83710473 -2.09388855 -18.30897331 -2.11795998 C-16.17200776 -2.14978435 -14.03533634 -2.16813684 -11.89819336 -2.18286133 C-10.07668007 -2.20259758 -10.07668007 -2.20259758 -8.21836853 -2.22273254 C-5 -2 -5 -2 0 0 Z " fill="#ACDB6A" transform="translate(233,104)"/>
<path d="M0 0 C0.80893204 -0.00700928 1.61786407 -0.01401855 2.4513092 -0.02124023 C5.11250634 -0.03877571 7.77263084 -0.0272126 10.43383789 -0.01367188 C12.29179589 -0.01636834 14.14975251 -0.02025205 16.00770569 -0.02526855 C19.8972012 -0.03115779 23.78632862 -0.02262019 27.67578125 -0.00390625 C32.65022862 0.01886708 37.62381191 0.00576691 42.5982275 -0.01819611 C46.43394931 -0.03268322 50.26946791 -0.02803448 54.105196 -0.01768494 C55.93873765 -0.01502487 57.77229801 -0.01826197 59.60581779 -0.02760315 C62.1739033 -0.03781518 64.74061034 -0.0222031 67.30859375 0 C68.434897 -0.01214539 68.434897 -0.01214539 69.58395386 -0.02453613 C75.04946899 0.06256805 78.26853729 1.28409885 82.71899414 4.51757812 C86.76029049 9.08959474 87.284143 13.01109661 87.1730957 18.90966797 C87.17367981 19.72984406 87.17426392 20.55002014 87.17486572 21.39505005 C87.17209219 24.08997805 87.14103571 26.78378228 87.10961914 29.47851562 C87.10215413 31.35323482 87.09646243 33.22796185 87.09246826 35.10269165 C87.0772324 40.02494032 87.03796826 44.94671311 86.99365234 49.86877441 C86.95265542 54.89617476 86.93444781 59.92365237 86.91430664 64.95117188 C86.87147201 74.80684913 86.80324551 84.66217398 86.71899414 94.51757812 C87.69538849 94.51091629 88.67178284 94.50425446 89.67776489 94.49739075 C98.88816633 94.43652393 108.09852686 94.39157874 117.30908394 94.36214161 C122.04411337 94.34649881 126.77898017 94.32528583 131.51391602 94.29125977 C136.08507761 94.25861692 140.65608297 94.24071468 145.22735214 94.2329464 C146.9696384 94.22741173 148.71191631 94.21660382 150.45413589 94.20038795 C152.89824013 94.178548 155.34170224 94.17561391 157.78588867 94.17700195 C158.50302536 94.16621613 159.22016205 94.1554303 159.95903015 94.14431763 C165.29245235 94.17700128 169.38166247 95.38566515 173.36352539 99.01757812 C177.26922542 104.03359422 177.8463818 107.17632163 177.88012695 113.44824219 C177.88509186 114.14944687 177.89005676 114.85065155 177.89517212 115.57310486 C177.90977723 117.89314762 177.91659385 120.21312194 177.92211914 122.53320312 C177.92787306 124.14882407 177.93363076 125.764445 177.93939209 127.38006592 C177.94989814 130.76949379 177.95574303 134.15889798 177.95922852 137.54833984 C177.96470479 141.88037827 177.98871575 146.21210105 178.01720047 150.54404068 C178.0358759 153.88302508 178.04103511 157.22193429 178.04256439 160.56096649 C178.04558166 162.15728221 178.0535788 163.75359691 178.06674957 165.34986115 C178.08390921 167.58992602 178.08190587 169.82923102 178.07543945 172.06933594 C178.07908508 173.3415802 178.08273071 174.61382446 178.08648682 175.92462158 C177.60687957 180.61371636 176.36873758 184.6453502 173.18383789 188.25976562 C168.11819077 192.0168952 165.34275499 192.66116439 159.14819336 192.63110352 C157.97732681 192.63132256 157.97732681 192.63132256 156.7828064 192.63154602 C154.19640345 192.63084799 151.61007205 192.62306069 149.02368164 192.61523438 C147.23292073 192.61336981 145.44215931 192.61194609 143.65139771 192.61094666 C138.93315223 192.60712453 134.21493744 192.59729683 129.4967041 192.58624268 C124.68408625 192.57602201 119.87146346 192.57144763 115.05883789 192.56640625 C105.61220981 192.55567431 96.16560453 192.53860153 86.71899414 192.51757812 C86.72787659 193.51680801 86.73675903 194.5160379 86.74591064 195.54554749 C86.82710459 204.97635139 86.88701137 214.40708409 86.92624283 223.83815861 C86.94709045 228.68644374 86.9753564 233.534446 87.02075195 238.38256836 C87.06431059 243.06397203 87.08815249 247.74510414 87.09850311 252.42669487 C87.10587652 254.21003937 87.12027517 255.99336952 87.14191437 257.77659798 C87.1710821 260.28050625 87.17494465 262.78330186 87.1730957 265.28735352 C87.18747681 266.01959641 87.20185791 266.75183929 87.2166748 267.50627136 C87.17523482 272.71518613 86.19368214 276.6392807 82.71899414 280.51757812 C77.62744842 284.31068664 72.57809751 285.10405315 66.37866211 285.03515625 C65.19167725 285.04567017 65.19167725 285.04567017 63.98071289 285.05639648 C61.39050186 285.07386204 58.80140185 285.06239752 56.21118164 285.04882812 C54.39852694 285.05152581 52.58587365 285.05541052 50.77322388 285.0604248 C46.98563781 285.06630387 43.19843052 285.05780648 39.41088867 285.0390625 C34.5641876 285.01624107 29.71837108 285.02942612 24.87170219 285.05335236 C21.13295864 285.06782565 17.39442392 285.06319791 13.65567398 285.05284119 C11.86875426 285.05017982 10.08181537 285.05342283 8.29491806 285.0627594 C5.79628178 285.07295416 3.29906781 285.05738585 0.80053711 285.03515625 C0.06791656 285.04325317 -0.66470398 285.0513501 -1.41952515 285.05969238 C-6.50120838 284.97621749 -9.35202906 283.68496332 -13.28100586 280.51757812 C-17.91119694 275.38682585 -18.42721463 271.53554108 -18.39453125 264.83325195 C-18.39467728 264.05252823 -18.3948233 263.2718045 -18.39497375 262.46742249 C-18.394277 259.88645653 -18.38649568 257.30556272 -18.37866211 254.72460938 C-18.37679709 252.9352777 -18.37537358 251.14594552 -18.37437439 249.35661316 C-18.37055584 244.64660228 -18.36073119 239.93662223 -18.34967041 235.22662354 C-18.33944207 230.42061785 -18.33487371 225.61460718 -18.32983398 220.80859375 C-18.31910835 211.37824166 -18.30203985 201.94791246 -18.28100586 192.51757812 C-19.28023575 192.52646057 -20.27946564 192.53534302 -21.30897522 192.54449463 C-30.73977912 192.62568857 -40.17051182 192.68559536 -49.60158634 192.72482681 C-54.44987147 192.74567444 -59.29787374 192.77394038 -64.14599609 192.81933594 C-68.82739976 192.86289458 -73.50853187 192.88673648 -78.1901226 192.8970871 C-79.97346711 192.90446051 -81.75679726 192.91885916 -83.54002571 192.94049835 C-86.04393398 192.96966608 -88.54672959 192.97352864 -91.05078125 192.97167969 C-91.78302414 192.98606079 -92.51526703 193.00044189 -93.2696991 193.01525879 C-98.80427643 192.97122797 -101.83581198 191.5855157 -106.28100586 188.51757812 C-110.47120495 183.11442666 -111.40573249 179.32596584 -111.45800781 172.58691406 C-111.46457901 171.88570938 -111.47115021 171.1845047 -111.47792053 170.46205139 C-111.49762627 168.1420175 -111.50931083 165.82204829 -111.51928711 163.50195312 C-111.52336264 162.70806435 -111.52743816 161.91417557 -111.53163719 161.09622955 C-111.55248768 156.8930945 -111.56679303 152.68999197 -111.57617188 148.48681641 C-111.58722608 144.15468382 -111.62161706 139.82306632 -111.66134357 135.49111557 C-111.68754375 132.15213087 -111.69586677 128.8132682 -111.69945335 125.47418976 C-111.70431161 123.87785621 -111.71590393 122.28152783 -111.73449135 120.6852951 C-111.7589536 118.44506035 -111.75790556 116.20614894 -111.75097656 113.96582031 C-111.7568428 112.69357605 -111.76270905 111.42133179 -111.76875305 110.11053467 C-111.02071488 104.60016232 -108.82509901 100.91461479 -104.65600586 97.14257812 C-100.52645919 94.31709882 -97.40493813 94.38096213 -92.52661133 94.40405273 C-91.72652649 94.40390671 -90.92644165 94.40376068 -90.10211182 94.40361023 C-87.45077833 94.40430832 -84.79951461 94.41209591 -82.14819336 94.41992188 C-80.31259194 94.42178642 -78.47699003 94.42321015 -76.64138794 94.42420959 C-71.8047753 94.42803189 -66.96819259 94.43785974 -62.1315918 94.44891357 C-57.19832769 94.45913387 -52.26505875 94.46370854 -47.33178711 94.46875 C-37.6481802 94.47948225 -27.96459551 94.49655524 -18.28100586 94.51757812 C-18.28988831 93.49329208 -18.29877075 92.46900604 -18.30792236 91.41368103 C-18.38910868 81.74741712 -18.44901947 72.08122265 -18.48825455 62.41469479 C-18.50910407 57.44534501 -18.5373736 52.4762711 -18.58276367 47.50708008 C-18.62631538 42.70896771 -18.65016278 37.91112022 -18.66051483 33.11282539 C-18.66788947 31.28482457 -18.68229051 29.45683778 -18.70392609 27.62895012 C-18.73308442 25.0627835 -18.73695674 22.49770286 -18.73510742 19.93139648 C-18.74948853 19.18045212 -18.76386963 18.42950775 -18.77868652 17.6558075 C-18.73611226 12.17402052 -17.52755457 8.97817324 -14.28100586 4.51757812 C-9.74394888 0.52396061 -5.85182268 -0.06293292 0 0 Z " fill="#FAFBFC" transform="translate(248.281005859375,187.482421875)"/>
<path d="M0 0 C0.33 0 0.66 0 1 0 C1 1.65 1 3.3 1 5 C0.67 5 0.34 5 0 5 C0 3.35 0 1.7 0 0 Z " fill="#D4FF2A" transform="translate(0,292)"/>
<path d="M0 0 C0.33 0.99 0.66 1.98 1 3 C0.34 2.67 -0.32 2.34 -1 2 C-0.67 1.34 -0.34 0.68 0 0 Z " fill="#2FBFCF" transform="translate(229,664)"/>
<path d="M0 0 C1 4 1 4 1 4 Z " fill="#FFFF00" transform="translate(0,406)"/>
<path d="M0 0 C1 4 1 4 1 4 Z " fill="#DFFF1F" transform="translate(0,359)"/>
<path d="M0 0 C1 4 1 4 1 4 Z " fill="#FFFF00" transform="translate(0,343)"/>
<path d="M0 0 C1 4 1 4 1 4 Z " fill="#C9FF35" transform="translate(0,285)"/>
<path d="M0 0 C1 4 1 4 1 4 Z " fill="#BFFF3F" transform="translate(0,247)"/>
<path d="M0 0 C1 4 1 4 1 4 Z " fill="#DFEFEF" transform="translate(231,23)"/>
<path d="" fill="#FFFF00" transform="translate(0,0)"/>
<path d="" fill="#8DFF71" transform="translate(0,0)"/>
<path d="M0 0 C0.33 0.66 0.66 1.32 1 2 C0.34 1.67 -0.32 1.34 -1 1 C-0.67 0.67 -0.34 0.34 0 0 Z " fill="#C6FFC6" transform="translate(231,99)"/>
<path d="" fill="#7FE97F" transform="translate(0,0)"/>
<path d="" fill="#A9E9A9" transform="translate(0,0)"/>
<path d="M0 0 C0.66 0 1.32 0 2 0 C1.67 0.66 1.34 1.32 1 2 C0.67 1.34 0.34 0.68 0 0 Z " fill="#E2FFE2" transform="translate(230,84)"/>
<path d="" fill="#C6FFC6" transform="translate(0,0)"/>
<path d="" fill="#3FBFBF" transform="translate(0,0)"/>
<path d="" fill="#3FBFBF" transform="translate(0,0)"/>
<path d="" fill="#00FFFF" transform="translate(0,0)"/>
<path d="M0 0 C2 1 2 1 2 1 Z " fill="#BFFF3F" transform="translate(204,544)"/>
<path d="" fill="#FFFF00" transform="translate(0,0)"/>
<path d="" fill="#BFFF3F" transform="translate(0,0)"/>
<path d="" fill="#FFFF00" transform="translate(0,0)"/>
<path d="" fill="#FFFF00" transform="translate(0,0)"/>
<path d="" fill="#BFFF3F" transform="translate(0,0)"/>
<path d="" fill="#94FF94" transform="translate(0,0)"/>
<path d="" fill="#7FFF7F" transform="translate(0,0)"/>
<path d="" fill="#D4FFD4" transform="translate(0,0)"/>
<path d="" fill="#D4FFD4" transform="translate(0,0)"/>
<path d="" fill="#FFFFFF" transform="translate(0,0)"/>
<path d="" fill="#BFFFBF" transform="translate(0,0)"/>
<path d="" fill="#BFFFBF" transform="translate(0,0)"/>
<path d="" fill="#FFFFFF" transform="translate(0,0)"/>
<path d="" fill="#BFFFBF" transform="translate(0,0)"/>
<path d="" fill="#00FFFF" transform="translate(0,0)"/>
<path d="" fill="#7F7F7F" transform="translate(0,0)"/>
<path d="" fill="#000000" transform="translate(0,0)"/>
<path d="" fill="#00FFFF" transform="translate(0,0)"/>
<path d="" fill="#00FF00" transform="translate(0,0)"/>
<path d="" fill="#000000" transform="translate(0,0)"/>
<path d="" fill="#000000" transform="translate(0,0)"/>
<path d="" fill="#000000" transform="translate(0,0)"/>
<path d="" fill="#000000" transform="translate(0,0)"/>
<path d="" fill="#000000" transform="translate(0,0)"/>
<path d="" fill="#00FF00" transform="translate(0,0)"/>
<path d="" fill="#00FFFF" transform="translate(0,0)"/>
<path d="" fill="#00FFFF" transform="translate(0,0)"/>
<path d="" fill="#55AAAA" transform="translate(0,0)"/>
<path d="" fill="#000000" transform="translate(0,0)"/>
<path d="" fill="#00FFFF" transform="translate(0,0)"/>
<path d="" fill="#00FFFF" transform="translate(0,0)"/>
<path d="" fill="#000000" transform="translate(0,0)"/>
<path d="" fill="#00FF00" transform="translate(0,0)"/>
<path d="" fill="#000000" transform="translate(0,0)"/>
<path d="" fill="#00FFFF" transform="translate(0,0)"/>
<path d="" fill="#00FFFF" transform="translate(0,0)"/>
<path d="" fill="#00FFFF" transform="translate(0,0)"/>
<path d="" fill="#00FFFF" transform="translate(0,0)"/>
<path d="" fill="#7F7F7F" transform="translate(0,0)"/>
<path d="" fill="#00FFFF" transform="translate(0,0)"/>
<path d="" fill="#66CC99" transform="translate(0,0)"/>
<path d="" fill="#00FFFF" transform="translate(0,0)"/>
<path d="" fill="#FFFF00" transform="translate(0,0)"/>
<path d="" fill="#FFFF00" transform="translate(0,0)"/>
<path d="" fill="#FFFF00" transform="translate(0,0)"/>
<path d="" fill="#FFFF00" transform="translate(0,0)"/>
<path d="" fill="#FFFF00" transform="translate(0,0)"/>
<path d="" fill="#FFFF00" transform="translate(0,0)"/>
<path d="" fill="#FFFF00" transform="translate(0,0)"/>
<path d="" fill="#FFFF00" transform="translate(0,0)"/>
<path d="" fill="#7FFF7F" transform="translate(0,0)"/>
<path d="" fill="#7FFF7F" transform="translate(0,0)"/>
<path d="" fill="#7FFF7F" transform="translate(0,0)"/>
<path d="" fill="#AAAA55" transform="translate(0,0)"/>
<path d="" fill="#00FFFF" transform="translate(0,0)"/>
<path d="" fill="#00FFFF" transform="translate(0,0)"/>
<path d="" fill="#FFFF00" transform="translate(0,0)"/>
<path d="" fill="#FFFF00" transform="translate(0,0)"/>
<path d="" fill="#FFFF00" transform="translate(0,0)"/>
<path d="" fill="#FFFF00" transform="translate(0,0)"/>
<path d="" fill="#FFFF00" transform="translate(0,0)"/>
<path d="" fill="#FFFF00" transform="translate(0,0)"/>
<path d="" fill="#00FFFF" transform="translate(0,0)"/>
<path d="" fill="#AAAA55" transform="translate(0,0)"/>
<path d="" fill="#7FBF7F" transform="translate(0,0)"/>
<path d="" fill="#FFFF00" transform="translate(0,0)"/>
<path d="" fill="#FFFF00" transform="translate(0,0)"/>
<path d="" fill="#FFFF00" transform="translate(0,0)"/>
<path d="" fill="#FFFF00" transform="translate(0,0)"/>
<path d="" fill="#FFFF00" transform="translate(0,0)"/>
<path d="" fill="#FFFF00" transform="translate(0,0)"/>
<path d="" fill="#FFFF00" transform="translate(0,0)"/>
<path d="" fill="#FFFF00" transform="translate(0,0)"/>
<path d="" fill="#FFFF00" transform="translate(0,0)"/>
<path d="" fill="#7FFF7F" transform="translate(0,0)"/>
<path d="" fill="#FFFF00" transform="translate(0,0)"/>
<path d="" fill="#BFBF7F" transform="translate(0,0)"/>
<path d="" fill="#FFFF00" transform="translate(0,0)"/>
<path d="" fill="#7FFF7F" transform="translate(0,0)"/>
<path d="" fill="#7FFF7F" transform="translate(0,0)"/>
<path d="" fill="#7FFF7F" transform="translate(0,0)"/>
<path d="" fill="#7FFF7F" transform="translate(0,0)"/>
<path d="" fill="#7FFF7F" transform="translate(0,0)"/>
<path d="" fill="#FFFF00" transform="translate(0,0)"/>
<path d="" fill="#00FFFF" transform="translate(0,0)"/>
<path d="" fill="#00FFFF" transform="translate(0,0)"/>
<path d="" fill="#FFFF00" transform="translate(0,0)"/>
<path d="" fill="#00FFFF" transform="translate(0,0)"/>
<path d="" fill="#FFFF00" transform="translate(0,0)"/>
<path d="" fill="#0000FF" transform="translate(0,0)"/>
<path d="" fill="#00FFFF" transform="translate(0,0)"/>
<path d="" fill="#00FFFF" transform="translate(0,0)"/>
<path d="" fill="#00FFFF" transform="translate(0,0)"/>
<path d="" fill="#00FFFF" transform="translate(0,0)"/>
<path d="" fill="#00FFFF" transform="translate(0,0)"/>
<path d="" fill="#00FFFF" transform="translate(0,0)"/>
<path d="" fill="#00FFFF" transform="translate(0,0)"/>
<path d="" fill="#FFFF00" transform="translate(0,0)"/>
<path d="" fill="#FFFF00" transform="translate(0,0)"/>
<path d="" fill="#FFFF00" transform="translate(0,0)"/>
<path d="" fill="#FFFF00" transform="translate(0,0)"/>
<path d="" fill="#7FFF7F" transform="translate(0,0)"/>
<path d="" fill="#FFFF00" transform="translate(0,0)"/>
<path d="" fill="#FFFFFF" transform="translate(0,0)"/>
<path d="" fill="#7F7FFF" transform="translate(0,0)"/>
<path d="" fill="#7FFF7F" transform="translate(0,0)"/>
<path d="" fill="#7FFF7F" transform="translate(0,0)"/>
<path d="" fill="#FFFFFF" transform="translate(0,0)"/>
<path d="" fill="#000000" transform="translate(0,0)"/>
<path d="" fill="#000000" transform="translate(0,0)"/>
<path d="" fill="#0000FF" transform="translate(0,0)"/>
<path d="" fill="#00FFFF" transform="translate(0,0)"/>
<path d="" fill="#00FF00" transform="translate(0,0)"/>
<path d="" fill="#00FF00" transform="translate(0,0)"/>
<path d="" fill="#FFFFFF" transform="translate(0,0)"/>
<path d="" fill="#00FFFF" transform="translate(0,0)"/>
<path d="" fill="#00FF00" transform="translate(0,0)"/>
<path d="" fill="#FFFFFF" transform="translate(0,0)"/>
<path d="" fill="#FFFFFF" transform="translate(0,0)"/>
<path d="" fill="#000000" transform="translate(0,0)"/>
<path d="" fill="#7F7FFF" transform="translate(0,0)"/>
<path d="" fill="#AAAAAA" transform="translate(0,0)"/>
</svg>
